ISO-10303-21;
HEADER;
/* Generated by software containing ST-Developer
 * from STEP Tools, Inc. (www.steptools.com) 
 */

FILE_DESCRIPTION(
/* description */ (''),
/* implementation_level */ '2;1');

FILE_NAME(
/* name */ '',
/* time_stamp */ '2026-04-25T23:54:54+03:00',
/* author */ ('Hp'),
/* organization */ (''),
/* preprocessor_version */ 'ST-DEVELOPER v20.1',
/* originating_system */ 'Autodesk Inventor 2027',
/* authorisation */ '');

FILE_SCHEMA (('AUTOMOTIVE_DESIGN { 1 0 10303 214 3 1 1 }'));
ENDSEC;

DATA;
#10=MECHANICAL_DESIGN_GEOMETRIC_PRESENTATION_REPRESENTATION('',(#13,#14,
#15),#674);
#11=SHAPE_REPRESENTATION_RELATIONSHIP('SRR','None',#681,#12);
#12=ADVANCED_BREP_SHAPE_REPRESENTATION('',(#16,#17,#18),#673);
#13=STYLED_ITEM('',(#690),#16);
#14=STYLED_ITEM('',(#690),#17);
#15=STYLED_ITEM('',(#690),#18);
#16=MANIFOLD_SOLID_BREP('Solid1',#409);
#17=MANIFOLD_SOLID_BREP('Solid1',#410);
#18=MANIFOLD_SOLID_BREP('Solid1',#411);
#19=FACE_OUTER_BOUND('',#43,.T.);
#20=FACE_OUTER_BOUND('',#44,.T.);
#21=FACE_OUTER_BOUND('',#45,.T.);
#22=FACE_OUTER_BOUND('',#46,.T.);
#23=FACE_OUTER_BOUND('',#47,.T.);
#24=FACE_OUTER_BOUND('',#48,.T.);
#25=FACE_OUTER_BOUND('',#49,.T.);
#26=FACE_OUTER_BOUND('',#50,.T.);
#27=FACE_OUTER_BOUND('',#51,.T.);
#28=FACE_OUTER_BOUND('',#52,.T.);
#29=FACE_OUTER_BOUND('',#53,.T.);
#30=FACE_OUTER_BOUND('',#54,.T.);
#31=FACE_OUTER_BOUND('',#55,.T.);
#32=FACE_OUTER_BOUND('',#56,.T.);
#33=FACE_OUTER_BOUND('',#57,.T.);
#34=FACE_OUTER_BOUND('',#58,.T.);
#35=FACE_OUTER_BOUND('',#59,.T.);
#36=FACE_OUTER_BOUND('',#60,.T.);
#37=FACE_OUTER_BOUND('',#61,.T.);
#38=FACE_OUTER_BOUND('',#62,.T.);
#39=FACE_OUTER_BOUND('',#63,.T.);
#40=FACE_OUTER_BOUND('',#64,.T.);
#41=FACE_OUTER_BOUND('',#65,.T.);
#42=FACE_OUTER_BOUND('',#66,.T.);
#43=EDGE_LOOP('',(#257,#258,#259,#260));
#44=EDGE_LOOP('',(#261,#262,#263,#264));
#45=EDGE_LOOP('',(#265,#266,#267,#268));
#46=EDGE_LOOP('',(#269,#270,#271,#272));
#47=EDGE_LOOP('',(#273,#274,#275,#276));
#48=EDGE_LOOP('',(#277,#278,#279,#280));
#49=EDGE_LOOP('',(#281,#282,#283,#284,#285,#286));
#50=EDGE_LOOP('',(#287,#288,#289,#290));
#51=EDGE_LOOP('',(#291,#292,#293,#294));
#52=EDGE_LOOP('',(#295,#296,#297,#298,#299));
#53=EDGE_LOOP('',(#300,#301,#302,#303,#304));
#54=EDGE_LOOP('',(#305,#306,#307,#308));
#55=EDGE_LOOP('',(#309,#310,#311,#312,#313));
#56=EDGE_LOOP('',(#314,#315,#316,#317));
#57=EDGE_LOOP('',(#318,#319,#320,#321));
#58=EDGE_LOOP('',(#322,#323,#324,#325,#326));
#59=EDGE_LOOP('',(#327,#328,#329,#330,#331,#332));
#60=EDGE_LOOP('',(#333,#334,#335,#336));
#61=EDGE_LOOP('',(#337,#338,#339,#340));
#62=EDGE_LOOP('',(#341,#342,#343,#344));
#63=EDGE_LOOP('',(#345,#346,#347,#348));
#64=EDGE_LOOP('',(#349,#350,#351,#352));
#65=EDGE_LOOP('',(#353,#354,#355,#356));
#66=EDGE_LOOP('',(#357,#358,#359,#360));
#67=LINE('',#564,#119);
#68=LINE('',#566,#120);
#69=LINE('',#568,#121);
#70=LINE('',#569,#122);
#71=LINE('',#572,#123);
#72=LINE('',#574,#124);
#73=LINE('',#575,#125);
#74=LINE('',#578,#126);
#75=LINE('',#580,#127);
#76=LINE('',#581,#128);
#77=LINE('',#583,#129);
#78=LINE('',#584,#130);
#79=LINE('',#590,#131);
#80=LINE('',#592,#132);
#81=LINE('',#594,#133);
#82=LINE('',#596,#134);
#83=LINE('',#598,#135);
#84=LINE('',#599,#136);
#85=LINE('',#603,#137);
#86=LINE('',#605,#138);
#87=LINE('',#607,#139);
#88=LINE('',#608,#140);
#89=LINE('',#610,#141);
#90=LINE('',#611,#142);
#91=LINE('',#614,#143);
#92=LINE('',#615,#144);
#93=LINE('',#617,#145);
#94=LINE('',#618,#146);
#95=LINE('',#623,#147);
#96=LINE('',#624,#148);
#97=LINE('',#626,#149);
#98=LINE('',#627,#150);
#99=LINE('',#630,#151);
#100=LINE('',#632,#152);
#101=LINE('',#633,#153);
#102=LINE('',#636,#154);
#103=LINE('',#638,#155);
#104=LINE('',#639,#156);
#105=LINE('',#641,#157);
#106=LINE('',#642,#158);
#107=LINE('',#648,#159);
#108=LINE('',#650,#160);
#109=LINE('',#652,#161);
#110=LINE('',#653,#162);
#111=LINE('',#656,#163);
#112=LINE('',#658,#164);
#113=LINE('',#659,#165);
#114=LINE('',#662,#166);
#115=LINE('',#664,#167);
#116=LINE('',#665,#168);
#117=LINE('',#667,#169);
#118=LINE('',#668,#170);
#119=VECTOR('',#462,10.);
#120=VECTOR('',#463,10.);
#121=VECTOR('',#464,10.);
#122=VECTOR('',#465,10.);
#123=VECTOR('',#468,10.);
#124=VECTOR('',#469,10.);
#125=VECTOR('',#470,10.);
#126=VECTOR('',#473,10.);
#127=VECTOR('',#474,10.);
#128=VECTOR('',#475,10.);
#129=VECTOR('',#478,10.);
#130=VECTOR('',#479,10.);
#131=VECTOR('',#486,10.);
#132=VECTOR('',#487,10.);
#133=VECTOR('',#488,10.);
#134=VECTOR('',#489,10.);
#135=VECTOR('',#490,10.);
#136=VECTOR('',#491,10.);
#137=VECTOR('',#494,10.);
#138=VECTOR('',#495,10.);
#139=VECTOR('',#496,10.);
#140=VECTOR('',#497,10.);
#141=VECTOR('',#500,10.);
#142=VECTOR('',#501,10.);
#143=VECTOR('',#504,10.);
#144=VECTOR('',#505,10.);
#145=VECTOR('',#508,10.);
#146=VECTOR('',#509,10.);
#147=VECTOR('',#514,10.);
#148=VECTOR('',#515,10.);
#149=VECTOR('',#516,10.);
#150=VECTOR('',#517,10.);
#151=VECTOR('',#520,10.);
#152=VECTOR('',#521,10.);
#153=VECTOR('',#522,10.);
#154=VECTOR('',#525,10.);
#155=VECTOR('',#526,10.);
#156=VECTOR('',#527,10.);
#157=VECTOR('',#530,10.);
#158=VECTOR('',#531,10.);
#159=VECTOR('',#538,10.);
#160=VECTOR('',#539,10.);
#161=VECTOR('',#540,10.);
#162=VECTOR('',#541,10.);
#163=VECTOR('',#544,10.);
#164=VECTOR('',#545,10.);
#165=VECTOR('',#546,10.);
#166=VECTOR('',#549,10.);
#167=VECTOR('',#550,10.);
#168=VECTOR('',#551,10.);
#169=VECTOR('',#554,10.);
#170=VECTOR('',#555,10.);
#171=VERTEX_POINT('',#562);
#172=VERTEX_POINT('',#563);
#173=VERTEX_POINT('',#565);
#174=VERTEX_POINT('',#567);
#175=VERTEX_POINT('',#571);
#176=VERTEX_POINT('',#573);
#177=VERTEX_POINT('',#577);
#178=VERTEX_POINT('',#579);
#179=VERTEX_POINT('',#588);
#180=VERTEX_POINT('',#589);
#181=VERTEX_POINT('',#591);
#182=VERTEX_POINT('',#593);
#183=VERTEX_POINT('',#595);
#184=VERTEX_POINT('',#597);
#185=VERTEX_POINT('',#601);
#186=VERTEX_POINT('',#602);
#187=VERTEX_POINT('',#604);
#188=VERTEX_POINT('',#606);
#189=VERTEX_POINT('',#613);
#190=VERTEX_POINT('',#621);
#191=VERTEX_POINT('',#622);
#192=VERTEX_POINT('',#625);
#193=VERTEX_POINT('',#629);
#194=VERTEX_POINT('',#631);
#195=VERTEX_POINT('',#635);
#196=VERTEX_POINT('',#637);
#197=VERTEX_POINT('',#646);
#198=VERTEX_POINT('',#647);
#199=VERTEX_POINT('',#649);
#200=VERTEX_POINT('',#651);
#201=VERTEX_POINT('',#655);
#202=VERTEX_POINT('',#657);
#203=VERTEX_POINT('',#661);
#204=VERTEX_POINT('',#663);
#205=EDGE_CURVE('',#171,#172,#67,.T.);
#206=EDGE_CURVE('',#172,#173,#68,.T.);
#207=EDGE_CURVE('',#174,#173,#69,.T.);
#208=EDGE_CURVE('',#171,#174,#70,.T.);
#209=EDGE_CURVE('',#175,#171,#71,.T.);
#210=EDGE_CURVE('',#176,#174,#72,.T.);
#211=EDGE_CURVE('',#175,#176,#73,.T.);
#212=EDGE_CURVE('',#177,#175,#74,.T.);
#213=EDGE_CURVE('',#178,#176,#75,.T.);
#214=EDGE_CURVE('',#177,#178,#76,.T.);
#215=EDGE_CURVE('',#172,#177,#77,.T.);
#216=EDGE_CURVE('',#173,#178,#78,.T.);
#217=EDGE_CURVE('',#179,#180,#79,.T.);
#218=EDGE_CURVE('',#181,#180,#80,.T.);
#219=EDGE_CURVE('',#182,#181,#81,.T.);
#220=EDGE_CURVE('',#183,#182,#82,.T.);
#221=EDGE_CURVE('',#184,#183,#83,.T.);
#222=EDGE_CURVE('',#184,#179,#84,.T.);
#223=EDGE_CURVE('',#185,#186,#85,.T.);
#224=EDGE_CURVE('',#186,#187,#86,.T.);
#225=EDGE_CURVE('',#187,#188,#87,.T.);
#226=EDGE_CURVE('',#188,#185,#88,.T.);
#227=EDGE_CURVE('',#181,#186,#89,.T.);
#228=EDGE_CURVE('',#182,#185,#90,.T.);
#229=EDGE_CURVE('',#189,#180,#91,.T.);
#230=EDGE_CURVE('',#189,#187,#92,.T.);
#231=EDGE_CURVE('',#184,#189,#93,.T.);
#232=EDGE_CURVE('',#183,#188,#94,.T.);
#233=EDGE_CURVE('',#190,#191,#95,.T.);
#234=EDGE_CURVE('',#191,#179,#96,.T.);
#235=EDGE_CURVE('',#192,#184,#97,.T.);
#236=EDGE_CURVE('',#190,#192,#98,.T.);
#237=EDGE_CURVE('',#193,#190,#99,.T.);
#238=EDGE_CURVE('',#194,#192,#100,.T.);
#239=EDGE_CURVE('',#193,#194,#101,.T.);
#240=EDGE_CURVE('',#195,#193,#102,.T.);
#241=EDGE_CURVE('',#196,#194,#103,.T.);
#242=EDGE_CURVE('',#195,#196,#104,.T.);
#243=EDGE_CURVE('',#191,#195,#105,.T.);
#244=EDGE_CURVE('',#180,#196,#106,.T.);
#245=EDGE_CURVE('',#197,#198,#107,.T.);
#246=EDGE_CURVE('',#198,#199,#108,.T.);
#247=EDGE_CURVE('',#200,#199,#109,.T.);
#248=EDGE_CURVE('',#197,#200,#110,.T.);
#249=EDGE_CURVE('',#201,#197,#111,.T.);
#250=EDGE_CURVE('',#202,#200,#112,.T.);
#251=EDGE_CURVE('',#201,#202,#113,.T.);
#252=EDGE_CURVE('',#203,#201,#114,.T.);
#253=EDGE_CURVE('',#204,#202,#115,.T.);
#254=EDGE_CURVE('',#203,#204,#116,.T.);
#255=EDGE_CURVE('',#198,#203,#117,.T.);
#256=EDGE_CURVE('',#199,#204,#118,.T.);
#257=ORIENTED_EDGE('',*,*,#205,.T.);
#258=ORIENTED_EDGE('',*,*,#206,.T.);
#259=ORIENTED_EDGE('',*,*,#207,.F.);
#260=ORIENTED_EDGE('',*,*,#208,.F.);
#261=ORIENTED_EDGE('',*,*,#209,.T.);
#262=ORIENTED_EDGE('',*,*,#208,.T.);
#263=ORIENTED_EDGE('',*,*,#210,.F.);
#264=ORIENTED_EDGE('',*,*,#211,.F.);
#265=ORIENTED_EDGE('',*,*,#212,.T.);
#266=ORIENTED_EDGE('',*,*,#211,.T.);
#267=ORIENTED_EDGE('',*,*,#213,.F.);
#268=ORIENTED_EDGE('',*,*,#214,.F.);
#269=ORIENTED_EDGE('',*,*,#215,.T.);
#270=ORIENTED_EDGE('',*,*,#214,.T.);
#271=ORIENTED_EDGE('',*,*,#216,.F.);
#272=ORIENTED_EDGE('',*,*,#206,.F.);
#273=ORIENTED_EDGE('',*,*,#216,.T.);
#274=ORIENTED_EDGE('',*,*,#213,.T.);
#275=ORIENTED_EDGE('',*,*,#210,.T.);
#276=ORIENTED_EDGE('',*,*,#207,.T.);
#277=ORIENTED_EDGE('',*,*,#215,.F.);
#278=ORIENTED_EDGE('',*,*,#205,.F.);
#279=ORIENTED_EDGE('',*,*,#209,.F.);
#280=ORIENTED_EDGE('',*,*,#212,.F.);
#281=ORIENTED_EDGE('',*,*,#217,.T.);
#282=ORIENTED_EDGE('',*,*,#218,.F.);
#283=ORIENTED_EDGE('',*,*,#219,.F.);
#284=ORIENTED_EDGE('',*,*,#220,.F.);
#285=ORIENTED_EDGE('',*,*,#221,.F.);
#286=ORIENTED_EDGE('',*,*,#222,.T.);
#287=ORIENTED_EDGE('',*,*,#223,.T.);
#288=ORIENTED_EDGE('',*,*,#224,.T.);
#289=ORIENTED_EDGE('',*,*,#225,.T.);
#290=ORIENTED_EDGE('',*,*,#226,.T.);
#291=ORIENTED_EDGE('',*,*,#219,.T.);
#292=ORIENTED_EDGE('',*,*,#227,.T.);
#293=ORIENTED_EDGE('',*,*,#223,.F.);
#294=ORIENTED_EDGE('',*,*,#228,.F.);
#295=ORIENTED_EDGE('',*,*,#218,.T.);
#296=ORIENTED_EDGE('',*,*,#229,.F.);
#297=ORIENTED_EDGE('',*,*,#230,.T.);
#298=ORIENTED_EDGE('',*,*,#224,.F.);
#299=ORIENTED_EDGE('',*,*,#227,.F.);
#300=ORIENTED_EDGE('',*,*,#231,.F.);
#301=ORIENTED_EDGE('',*,*,#221,.T.);
#302=ORIENTED_EDGE('',*,*,#232,.T.);
#303=ORIENTED_EDGE('',*,*,#225,.F.);
#304=ORIENTED_EDGE('',*,*,#230,.F.);
#305=ORIENTED_EDGE('',*,*,#220,.T.);
#306=ORIENTED_EDGE('',*,*,#228,.T.);
#307=ORIENTED_EDGE('',*,*,#226,.F.);
#308=ORIENTED_EDGE('',*,*,#232,.F.);
#309=ORIENTED_EDGE('',*,*,#233,.T.);
#310=ORIENTED_EDGE('',*,*,#234,.T.);
#311=ORIENTED_EDGE('',*,*,#222,.F.);
#312=ORIENTED_EDGE('',*,*,#235,.F.);
#313=ORIENTED_EDGE('',*,*,#236,.F.);
#314=ORIENTED_EDGE('',*,*,#237,.T.);
#315=ORIENTED_EDGE('',*,*,#236,.T.);
#316=ORIENTED_EDGE('',*,*,#238,.F.);
#317=ORIENTED_EDGE('',*,*,#239,.F.);
#318=ORIENTED_EDGE('',*,*,#240,.T.);
#319=ORIENTED_EDGE('',*,*,#239,.T.);
#320=ORIENTED_EDGE('',*,*,#241,.F.);
#321=ORIENTED_EDGE('',*,*,#242,.F.);
#322=ORIENTED_EDGE('',*,*,#243,.T.);
#323=ORIENTED_EDGE('',*,*,#242,.T.);
#324=ORIENTED_EDGE('',*,*,#244,.F.);
#325=ORIENTED_EDGE('',*,*,#217,.F.);
#326=ORIENTED_EDGE('',*,*,#234,.F.);
#327=ORIENTED_EDGE('',*,*,#229,.T.);
#328=ORIENTED_EDGE('',*,*,#244,.T.);
#329=ORIENTED_EDGE('',*,*,#241,.T.);
#330=ORIENTED_EDGE('',*,*,#238,.T.);
#331=ORIENTED_EDGE('',*,*,#235,.T.);
#332=ORIENTED_EDGE('',*,*,#231,.T.);
#333=ORIENTED_EDGE('',*,*,#243,.F.);
#334=ORIENTED_EDGE('',*,*,#233,.F.);
#335=ORIENTED_EDGE('',*,*,#237,.F.);
#336=ORIENTED_EDGE('',*,*,#240,.F.);
#337=ORIENTED_EDGE('',*,*,#245,.T.);
#338=ORIENTED_EDGE('',*,*,#246,.T.);
#339=ORIENTED_EDGE('',*,*,#247,.F.);
#340=ORIENTED_EDGE('',*,*,#248,.F.);
#341=ORIENTED_EDGE('',*,*,#249,.T.);
#342=ORIENTED_EDGE('',*,*,#248,.T.);
#343=ORIENTED_EDGE('',*,*,#250,.F.);
#344=ORIENTED_EDGE('',*,*,#251,.F.);
#345=ORIENTED_EDGE('',*,*,#252,.T.);
#346=ORIENTED_EDGE('',*,*,#251,.T.);
#347=ORIENTED_EDGE('',*,*,#253,.F.);
#348=ORIENTED_EDGE('',*,*,#254,.F.);
#349=ORIENTED_EDGE('',*,*,#255,.T.);
#350=ORIENTED_EDGE('',*,*,#254,.T.);
#351=ORIENTED_EDGE('',*,*,#256,.F.);
#352=ORIENTED_EDGE('',*,*,#246,.F.);
#353=ORIENTED_EDGE('',*,*,#256,.T.);
#354=ORIENTED_EDGE('',*,*,#253,.T.);
#355=ORIENTED_EDGE('',*,*,#250,.T.);
#356=ORIENTED_EDGE('',*,*,#247,.T.);
#357=ORIENTED_EDGE('',*,*,#255,.F.);
#358=ORIENTED_EDGE('',*,*,#245,.F.);
#359=ORIENTED_EDGE('',*,*,#249,.F.);
#360=ORIENTED_EDGE('',*,*,#252,.F.);
#361=PLANE('',#434);
#362=PLANE('',#435);
#363=PLANE('',#436);
#364=PLANE('',#437);
#365=PLANE('',#438);
#366=PLANE('',#439);
#367=PLANE('',#440);
#368=PLANE('',#441);
#369=PLANE('',#442);
#370=PLANE('',#443);
#371=PLANE('',#444);
#372=PLANE('',#445);
#373=PLANE('',#446);
#374=PLANE('',#447);
#375=PLANE('',#448);
#376=PLANE('',#449);
#377=PLANE('',#450);
#378=PLANE('',#451);
#379=PLANE('',#452);
#380=PLANE('',#453);
#381=PLANE('',#454);
#382=PLANE('',#455);
#383=PLANE('',#456);
#384=PLANE('',#457);
#385=ADVANCED_FACE('',(#19),#361,.T.);
#386=ADVANCED_FACE('',(#20),#362,.T.);
#387=ADVANCED_FACE('',(#21),#363,.T.);
#388=ADVANCED_FACE('',(#22),#364,.T.);
#389=ADVANCED_FACE('',(#23),#365,.T.);
#390=ADVANCED_FACE('',(#24),#366,.F.);
#391=ADVANCED_FACE('',(#25),#367,.F.);
#392=ADVANCED_FACE('',(#26),#368,.T.);
#393=ADVANCED_FACE('',(#27),#369,.T.);
#394=ADVANCED_FACE('',(#28),#370,.T.);
#395=ADVANCED_FACE('',(#29),#371,.T.);
#396=ADVANCED_FACE('',(#30),#372,.T.);
#397=ADVANCED_FACE('',(#31),#373,.T.);
#398=ADVANCED_FACE('',(#32),#374,.T.);
#399=ADVANCED_FACE('',(#33),#375,.T.);
#400=ADVANCED_FACE('',(#34),#376,.T.);
#401=ADVANCED_FACE('',(#35),#377,.T.);
#402=ADVANCED_FACE('',(#36),#378,.F.);
#403=ADVANCED_FACE('',(#37),#379,.T.);
#404=ADVANCED_FACE('',(#38),#380,.T.);
#405=ADVANCED_FACE('',(#39),#381,.T.);
#406=ADVANCED_FACE('',(#40),#382,.T.);
#407=ADVANCED_FACE('',(#41),#383,.T.);
#408=ADVANCED_FACE('',(#42),#384,.F.);
#409=CLOSED_SHELL('',(#385,#386,#387,#388,#389,#390));
#410=CLOSED_SHELL('',(#391,#392,#393,#394,#395,#396,#397,#398,#399,#400,
#401,#402));
#411=CLOSED_SHELL('',(#403,#404,#405,#406,#407,#408));
#412=DERIVED_UNIT_ELEMENT(#415,1.);
#413=DERIVED_UNIT_ELEMENT(#676,-3.);
#414=DIMENSIONAL_EXPONENTS(0.,1.,0.,0.,0.,0.,0.);
#415=(
CONVERSION_BASED_UNIT('gram',#417)
MASS_UNIT()
NAMED_UNIT(#414)
);
#416=(
MASS_UNIT()
NAMED_UNIT(*)
SI_UNIT(.KILO.,.GRAM.)
);
#417=MASS_MEASURE_WITH_UNIT(MASS_MEASURE(0.001),#416);
#418=DERIVED_UNIT((#412,#413));
#419=MEASURE_REPRESENTATION_ITEM('density measure',
POSITIVE_RATIO_MEASURE(1.),#418);
#420=PROPERTY_DEFINITION_REPRESENTATION(#425,#422);
#421=PROPERTY_DEFINITION_REPRESENTATION(#426,#423);
#422=REPRESENTATION('material name',(#424),#673);
#423=REPRESENTATION('density',(#419),#673);
#424=DESCRIPTIVE_REPRESENTATION_ITEM('Generic','Generic');
#425=PROPERTY_DEFINITION('material property','material name',#683);
#426=PROPERTY_DEFINITION('material property','density of part',#683);
#427=DATE_TIME_ROLE('creation_date');
#428=APPLIED_DATE_AND_TIME_ASSIGNMENT(#429,#427,(#683));
#429=DATE_AND_TIME(#430,#431);
#430=CALENDAR_DATE(2026,25,4);
#431=LOCAL_TIME(0,0,0.,#432);
#432=COORDINATED_UNIVERSAL_TIME_OFFSET(0,0,.BEHIND.);
#433=AXIS2_PLACEMENT_3D('',#560,#458,#459);
#434=AXIS2_PLACEMENT_3D('',#561,#460,#461);
#435=AXIS2_PLACEMENT_3D('',#570,#466,#467);
#436=AXIS2_PLACEMENT_3D('',#576,#471,#472);
#437=AXIS2_PLACEMENT_3D('',#582,#476,#477);
#438=AXIS2_PLACEMENT_3D('',#585,#480,#481);
#439=AXIS2_PLACEMENT_3D('',#586,#482,#483);
#440=AXIS2_PLACEMENT_3D('',#587,#484,#485);
#441=AXIS2_PLACEMENT_3D('',#600,#492,#493);
#442=AXIS2_PLACEMENT_3D('',#609,#498,#499);
#443=AXIS2_PLACEMENT_3D('',#612,#502,#503);
#444=AXIS2_PLACEMENT_3D('',#616,#506,#507);
#445=AXIS2_PLACEMENT_3D('',#619,#510,#511);
#446=AXIS2_PLACEMENT_3D('',#620,#512,#513);
#447=AXIS2_PLACEMENT_3D('',#628,#518,#519);
#448=AXIS2_PLACEMENT_3D('',#634,#523,#524);
#449=AXIS2_PLACEMENT_3D('',#640,#528,#529);
#450=AXIS2_PLACEMENT_3D('',#643,#532,#533);
#451=AXIS2_PLACEMENT_3D('',#644,#534,#535);
#452=AXIS2_PLACEMENT_3D('',#645,#536,#537);
#453=AXIS2_PLACEMENT_3D('',#654,#542,#543);
#454=AXIS2_PLACEMENT_3D('',#660,#547,#548);
#455=AXIS2_PLACEMENT_3D('',#666,#552,#553);
#456=AXIS2_PLACEMENT_3D('',#669,#556,#557);
#457=AXIS2_PLACEMENT_3D('',#670,#558,#559);
#458=DIRECTION('axis',(0.,0.,1.));
#459=DIRECTION('refdir',(1.,0.,0.));
#460=DIRECTION('center_axis',(-1.,-4.736951571734E-16,0.));
#461=DIRECTION('ref_axis',(4.736951571734E-16,-1.,0.));
#462=DIRECTION('',(4.736951571734E-16,-1.,0.));
#463=DIRECTION('',(0.,0.,1.));
#464=DIRECTION('',(4.736951571734E-16,-1.,0.));
#465=DIRECTION('',(0.,0.,1.));
#466=DIRECTION('center_axis',(-2.368475785867E-16,1.,0.));
#467=DIRECTION('ref_axis',(-1.,-2.368475785867E-16,0.));
#468=DIRECTION('',(-1.,-2.368475785867E-16,0.));
#469=DIRECTION('',(-1.,-2.368475785867E-16,0.));
#470=DIRECTION('',(0.,0.,1.));
#471=DIRECTION('center_axis',(1.,2.368475785867E-16,0.));
#472=DIRECTION('ref_axis',(-2.368475785867E-16,1.,0.));
#473=DIRECTION('',(-2.368475785867E-16,1.,0.));
#474=DIRECTION('',(-2.368475785867E-16,1.,0.));
#475=DIRECTION('',(0.,0.,1.));
#476=DIRECTION('center_axis',(0.,-1.,0.));
#477=DIRECTION('ref_axis',(1.,0.,0.));
#478=DIRECTION('',(1.,0.,0.));
#479=DIRECTION('',(1.,0.,0.));
#480=DIRECTION('center_axis',(0.,0.,1.));
#481=DIRECTION('ref_axis',(1.,0.,0.));
#482=DIRECTION('center_axis',(0.,0.,1.));
#483=DIRECTION('ref_axis',(1.,0.,0.));
#484=DIRECTION('center_axis',(0.,0.,1.));
#485=DIRECTION('ref_axis',(1.,0.,0.));
#486=DIRECTION('',(1.,0.,0.));
#487=DIRECTION('',(0.,1.,0.));
#488=DIRECTION('',(1.,0.,0.));
#489=DIRECTION('',(0.,-1.,0.));
#490=DIRECTION('',(-1.,-5.9211894646675E-17,0.));
#491=DIRECTION('',(2.368475785867E-16,-1.,0.));
#492=DIRECTION('center_axis',(0.,0.,1.));
#493=DIRECTION('ref_axis',(1.,0.,0.));
#494=DIRECTION('',(1.,0.,0.));
#495=DIRECTION('',(0.,1.,0.));
#496=DIRECTION('',(-1.,-5.9211894646675E-17,0.));
#497=DIRECTION('',(0.,-1.,0.));
#498=DIRECTION('center_axis',(0.,-1.,0.));
#499=DIRECTION('ref_axis',(1.,0.,0.));
#500=DIRECTION('',(0.,0.,1.));
#501=DIRECTION('',(0.,0.,1.));
#502=DIRECTION('center_axis',(1.,0.,0.));
#503=DIRECTION('ref_axis',(0.,1.,0.));
#504=DIRECTION('',(0.,-1.,0.));
#505=DIRECTION('',(0.,0.,1.));
#506=DIRECTION('center_axis',(-5.9211894646675E-17,1.,0.));
#507=DIRECTION('ref_axis',(-1.,-5.9211894646675E-17,0.));
#508=DIRECTION('',(1.,5.9211894646675E-17,0.));
#509=DIRECTION('',(0.,0.,1.));
#510=DIRECTION('center_axis',(-1.,0.,0.));
#511=DIRECTION('ref_axis',(0.,-1.,0.));
#512=DIRECTION('center_axis',(-1.,-2.368475785867E-16,0.));
#513=DIRECTION('ref_axis',(2.368475785867E-16,-1.,0.));
#514=DIRECTION('',(2.368475785867E-16,-1.,0.));
#515=DIRECTION('',(0.,0.,1.));
#516=DIRECTION('',(2.368475785867E-16,-1.,0.));
#517=DIRECTION('',(0.,0.,1.));
#518=DIRECTION('center_axis',(-5.9211894646675E-17,1.,0.));
#519=DIRECTION('ref_axis',(-1.,-5.9211894646675E-17,0.));
#520=DIRECTION('',(-1.,-5.9211894646675E-17,0.));
#521=DIRECTION('',(-1.,-5.9211894646675E-17,0.));
#522=DIRECTION('',(0.,0.,1.));
#523=DIRECTION('center_axis',(1.,2.368475785867E-16,0.));
#524=DIRECTION('ref_axis',(-2.368475785867E-16,1.,0.));
#525=DIRECTION('',(-2.368475785867E-16,1.,0.));
#526=DIRECTION('',(-2.368475785867E-16,1.,0.));
#527=DIRECTION('',(0.,0.,1.));
#528=DIRECTION('center_axis',(0.,-1.,0.));
#529=DIRECTION('ref_axis',(1.,0.,0.));
#530=DIRECTION('',(1.,0.,0.));
#531=DIRECTION('',(1.,0.,0.));
#532=DIRECTION('center_axis',(0.,0.,1.));
#533=DIRECTION('ref_axis',(1.,0.,0.));
#534=DIRECTION('center_axis',(0.,0.,1.));
#535=DIRECTION('ref_axis',(1.,0.,0.));
#536=DIRECTION('center_axis',(-1.,-4.736951571734E-16,0.));
#537=DIRECTION('ref_axis',(4.736951571734E-16,-1.,0.));
#538=DIRECTION('',(4.736951571734E-16,-1.,0.));
#539=DIRECTION('',(0.,0.,1.));
#540=DIRECTION('',(4.736951571734E-16,-1.,0.));
#541=DIRECTION('',(0.,0.,1.));
#542=DIRECTION('center_axis',(-5.9211894646675E-17,1.,0.));
#543=DIRECTION('ref_axis',(-1.,-5.9211894646675E-17,0.));
#544=DIRECTION('',(-1.,-5.9211894646675E-17,0.));
#545=DIRECTION('',(-1.,-5.9211894646675E-17,0.));
#546=DIRECTION('',(0.,0.,1.));
#547=DIRECTION('center_axis',(1.,9.473903143468E-16,0.));
#548=DIRECTION('ref_axis',(-9.473903143468E-16,1.,0.));
#549=DIRECTION('',(-9.473903143468E-16,1.,0.));
#550=DIRECTION('',(-9.473903143468E-16,1.,0.));
#551=DIRECTION('',(0.,0.,1.));
#552=DIRECTION('center_axis',(0.,-1.,0.));
#553=DIRECTION('ref_axis',(1.,0.,0.));
#554=DIRECTION('',(1.,0.,0.));
#555=DIRECTION('',(1.,0.,0.));
#556=DIRECTION('center_axis',(0.,0.,1.));
#557=DIRECTION('ref_axis',(1.,0.,0.));
#558=DIRECTION('center_axis',(0.,0.,1.));
#559=DIRECTION('ref_axis',(1.,0.,0.));
#560=CARTESIAN_POINT('',(0.,0.,0.));
#561=CARTESIAN_POINT('Origin',(-161.083874386978,409.763911980473,0.));
#562=CARTESIAN_POINT('',(-161.083874386978,409.763911980473,0.));
#563=CARTESIAN_POINT('',(-161.083874386977,259.763911980473,0.));
#564=CARTESIAN_POINT('',(-161.083874386978,409.763911980473,0.));
#565=CARTESIAN_POINT('',(-161.083874386977,259.763911980473,150.));
#566=CARTESIAN_POINT('',(-161.083874386977,259.763911980473,0.));
#567=CARTESIAN_POINT('',(-161.083874386978,409.763911980473,150.));
#568=CARTESIAN_POINT('',(-161.083874386978,409.763911980473,150.));
#569=CARTESIAN_POINT('',(-161.083874386978,409.763911980473,0.));
#570=CARTESIAN_POINT('Origin',(138.916125613022,409.763911980473,0.));
#571=CARTESIAN_POINT('',(138.916125613022,409.763911980473,0.));
#572=CARTESIAN_POINT('',(138.916125613022,409.763911980473,0.));
#573=CARTESIAN_POINT('',(138.916125613022,409.763911980473,150.));
#574=CARTESIAN_POINT('',(138.916125613022,409.763911980473,150.));
#575=CARTESIAN_POINT('',(138.916125613022,409.763911980473,0.));
#576=CARTESIAN_POINT('Origin',(138.916125613023,259.763911980473,0.));
#577=CARTESIAN_POINT('',(138.916125613023,259.763911980473,0.));
#578=CARTESIAN_POINT('',(138.916125613023,259.763911980473,0.));
#579=CARTESIAN_POINT('',(138.916125613023,259.763911980473,150.));
#580=CARTESIAN_POINT('',(138.916125613023,259.763911980473,150.));
#581=CARTESIAN_POINT('',(138.916125613023,259.763911980473,0.));
#582=CARTESIAN_POINT('Origin',(-161.083874386977,259.763911980473,0.));
#583=CARTESIAN_POINT('',(-161.083874386977,259.763911980473,0.));
#584=CARTESIAN_POINT('',(-161.083874386977,259.763911980473,150.));
#585=CARTESIAN_POINT('Origin',(-11.0838743869775,334.763911980473,150.));
#586=CARTESIAN_POINT('Origin',(-11.0838743869775,334.763911980473,0.));
#587=CARTESIAN_POINT('Origin',(-145.312420057187,0.445246226080975,150.));
#588=CARTESIAN_POINT('',(-165.890509270543,-73.5800321867245,150.));
#589=CARTESIAN_POINT('',(4.68757994281304,-73.5800321867245,150.));
#590=CARTESIAN_POINT('',(-165.890509270543,-73.5800321867245,150.));
#591=CARTESIAN_POINT('',(4.68757994281304,-74.554753773919,150.));
#592=CARTESIAN_POINT('',(4.68757994281304,-74.554753773919,150.));
#593=CARTESIAN_POINT('',(-295.312420057187,-74.554753773919,150.));
#594=CARTESIAN_POINT('',(-295.312420057187,-74.554753773919,150.));
#595=CARTESIAN_POINT('',(-295.312420057187,75.445246226081,150.));
#596=CARTESIAN_POINT('',(-295.312420057187,75.445246226081,150.));
#597=CARTESIAN_POINT('',(-165.890509270543,75.445246226081,150.));
#598=CARTESIAN_POINT('',(4.68757994281304,75.445246226081,150.));
#599=CARTESIAN_POINT('',(-165.890509270543,76.4199678132755,150.));
#600=CARTESIAN_POINT('Origin',(-145.312420057187,0.445246226080975,300.));
#601=CARTESIAN_POINT('',(-295.312420057187,-74.554753773919,300.));
#602=CARTESIAN_POINT('',(4.68757994281304,-74.554753773919,300.));
#603=CARTESIAN_POINT('',(-295.312420057187,-74.554753773919,300.));
#604=CARTESIAN_POINT('',(4.68757994281304,75.445246226081,300.));
#605=CARTESIAN_POINT('',(4.68757994281304,-74.554753773919,300.));
#606=CARTESIAN_POINT('',(-295.312420057187,75.445246226081,300.));
#607=CARTESIAN_POINT('',(4.68757994281304,75.445246226081,300.));
#608=CARTESIAN_POINT('',(-295.312420057187,75.445246226081,300.));
#609=CARTESIAN_POINT('Origin',(-295.312420057187,-74.554753773919,150.));
#610=CARTESIAN_POINT('',(4.68757994281304,-74.554753773919,150.));
#611=CARTESIAN_POINT('',(-295.312420057187,-74.554753773919,150.));
#612=CARTESIAN_POINT('Origin',(4.68757994281304,-74.554753773919,150.));
#613=CARTESIAN_POINT('',(4.68757994281304,75.445246226081,150.));
#614=CARTESIAN_POINT('',(4.68757994281304,-74.554753773919,150.));
#615=CARTESIAN_POINT('',(4.68757994281304,75.445246226081,150.));
#616=CARTESIAN_POINT('Origin',(4.68757994281304,75.445246226081,150.));
#617=CARTESIAN_POINT('',(4.68757994281304,75.445246226081,150.));
#618=CARTESIAN_POINT('',(-295.312420057187,75.445246226081,150.));
#619=CARTESIAN_POINT('Origin',(-295.312420057187,75.445246226081,150.));
#620=CARTESIAN_POINT('Origin',(-165.890509270543,76.4199678132755,0.));
#621=CARTESIAN_POINT('',(-165.890509270543,76.4199678132755,0.));
#622=CARTESIAN_POINT('',(-165.890509270543,-73.5800321867245,0.));
#623=CARTESIAN_POINT('',(-165.890509270543,76.4199678132755,0.));
#624=CARTESIAN_POINT('',(-165.890509270543,-73.5800321867245,0.));
#625=CARTESIAN_POINT('',(-165.890509270543,76.4199678132755,150.));
#626=CARTESIAN_POINT('',(-165.890509270543,76.4199678132755,150.));
#627=CARTESIAN_POINT('',(-165.890509270543,76.4199678132755,0.));
#628=CARTESIAN_POINT('Origin',(134.109490729457,76.4199678132755,0.));
#629=CARTESIAN_POINT('',(134.109490729457,76.4199678132755,0.));
#630=CARTESIAN_POINT('',(134.109490729457,76.4199678132755,0.));
#631=CARTESIAN_POINT('',(134.109490729457,76.4199678132755,150.));
#632=CARTESIAN_POINT('',(134.109490729457,76.4199678132755,150.));
#633=CARTESIAN_POINT('',(134.109490729457,76.4199678132755,0.));
#634=CARTESIAN_POINT('Origin',(134.109490729457,-73.5800321867245,0.));
#635=CARTESIAN_POINT('',(134.109490729457,-73.5800321867245,0.));
#636=CARTESIAN_POINT('',(134.109490729457,-73.5800321867245,0.));
#637=CARTESIAN_POINT('',(134.109490729457,-73.5800321867245,150.));
#638=CARTESIAN_POINT('',(134.109490729457,-73.5800321867245,150.));
#639=CARTESIAN_POINT('',(134.109490729457,-73.5800321867245,0.));
#640=CARTESIAN_POINT('Origin',(-165.890509270543,-73.5800321867245,0.));
#641=CARTESIAN_POINT('',(-165.890509270543,-73.5800321867245,0.));
#642=CARTESIAN_POINT('',(-165.890509270543,-73.5800321867245,150.));
#643=CARTESIAN_POINT('Origin',(-15.8905092705433,1.41996781327554,150.));
#644=CARTESIAN_POINT('Origin',(-15.8905092705433,1.41996781327554,0.));
#645=CARTESIAN_POINT('Origin',(639.827377559988,69.6310085607872,0.));
#646=CARTESIAN_POINT('',(639.827377559988,69.6310085607872,0.));
#647=CARTESIAN_POINT('',(639.827377559988,-80.3689914392128,0.));
#648=CARTESIAN_POINT('',(639.827377559988,69.6310085607872,0.));
#649=CARTESIAN_POINT('',(639.827377559988,-80.3689914392128,150.));
#650=CARTESIAN_POINT('',(639.827377559988,-80.3689914392128,0.));
#651=CARTESIAN_POINT('',(639.827377559988,69.6310085607872,150.));
#652=CARTESIAN_POINT('',(639.827377559988,69.6310085607872,150.));
#653=CARTESIAN_POINT('',(639.827377559988,69.6310085607872,0.));
#654=CARTESIAN_POINT('Origin',(939.827377559988,69.6310085607872,0.));
#655=CARTESIAN_POINT('',(939.827377559988,69.6310085607872,0.));
#656=CARTESIAN_POINT('',(939.827377559988,69.6310085607872,0.));
#657=CARTESIAN_POINT('',(939.827377559988,69.6310085607872,150.));
#658=CARTESIAN_POINT('',(939.827377559988,69.6310085607872,150.));
#659=CARTESIAN_POINT('',(939.827377559988,69.6310085607872,0.));
#660=CARTESIAN_POINT('Origin',(939.827377559988,-80.3689914392128,0.));
#661=CARTESIAN_POINT('',(939.827377559988,-80.3689914392128,0.));
#662=CARTESIAN_POINT('',(939.827377559988,-80.3689914392128,0.));
#663=CARTESIAN_POINT('',(939.827377559988,-80.3689914392128,150.));
#664=CARTESIAN_POINT('',(939.827377559988,-80.3689914392128,150.));
#665=CARTESIAN_POINT('',(939.827377559988,-80.3689914392128,0.));
#666=CARTESIAN_POINT('Origin',(639.827377559988,-80.3689914392128,0.));
#667=CARTESIAN_POINT('',(639.827377559988,-80.3689914392128,0.));
#668=CARTESIAN_POINT('',(639.827377559988,-80.3689914392128,150.));
#669=CARTESIAN_POINT('Origin',(789.827377559988,-5.3689914392128,150.));
#670=CARTESIAN_POINT('Origin',(789.827377559988,-5.3689914392128,0.));
#671=UNCERTAINTY_MEASURE_WITH_UNIT(LENGTH_MEASURE(0.01),#675,
'DISTANCE_ACCURACY_VALUE',
'Maximum model space distance between geometric entities at asserted c
onnectivities');
#672=UNCERTAINTY_MEASURE_WITH_UNIT(LENGTH_MEASURE(0.01),#675,
'DISTANCE_ACCURACY_VALUE',
'Maximum model space distance between geometric entities at asserted c
onnectivities');
#673=(
GEOMETRIC_REPRESENTATION_CONTEXT(3)
GLOBAL_UNCERTAINTY_ASSIGNED_CONTEXT((#671))
GLOBAL_UNIT_ASSIGNED_CONTEXT((#675,#677,#678))
REPRESENTATION_CONTEXT('','3D')
);
#674=(
GEOMETRIC_REPRESENTATION_CONTEXT(3)
GLOBAL_UNCERTAINTY_ASSIGNED_CONTEXT((#672))
GLOBAL_UNIT_ASSIGNED_CONTEXT((#675,#677,#678))
REPRESENTATION_CONTEXT('','3D')
);
#675=(
LENGTH_UNIT()
NAMED_UNIT(*)
SI_UNIT(.MILLI.,.METRE.)
);
#676=(
LENGTH_UNIT()
NAMED_UNIT(*)
SI_UNIT(.CENTI.,.METRE.)
);
#677=(
NAMED_UNIT(*)
PLANE_ANGLE_UNIT()
SI_UNIT($,.RADIAN.)
);
#678=(
NAMED_UNIT(*)
SI_UNIT($,.STERADIAN.)
SOLID_ANGLE_UNIT()
);
#679=SHAPE_DEFINITION_REPRESENTATION(#680,#681);
#680=PRODUCT_DEFINITION_SHAPE('',$,#683);
#681=SHAPE_REPRESENTATION('',(#433),#673);
#682=PRODUCT_DEFINITION_CONTEXT('part definition',#687,'design');
#683=PRODUCT_DEFINITION('Part1','Part1',#684,#682);
#684=PRODUCT_DEFINITION_FORMATION('',$,#689);
#685=PRODUCT_RELATED_PRODUCT_CATEGORY('Part1','Part1',(#689));
#686=APPLICATION_PROTOCOL_DEFINITION('international standard',
'automotive_design',2009,#687);
#687=APPLICATION_CONTEXT(
'Core Data for Automotive Mechanical Design Process');
#688=PRODUCT_CONTEXT('part definition',#687,'mechanical');
#689=PRODUCT('Part1','Part1',$,(#688));
#690=PRESENTATION_STYLE_ASSIGNMENT((#691));
#691=SURFACE_STYLE_USAGE(.BOTH.,#694);
#692=SURFACE_STYLE_RENDERING_WITH_PROPERTIES($,#698,(#693));
#693=SURFACE_STYLE_TRANSPARENT(0.);
#694=SURFACE_SIDE_STYLE('',(#695,#692));
#695=SURFACE_STYLE_FILL_AREA(#696);
#696=FILL_AREA_STYLE('',(#697));
#697=FILL_AREA_STYLE_COLOUR('',#698);
#698=COLOUR_RGB('',0.749019607843137,0.749019607843137,0.749019607843137);
ENDSEC;
END-ISO-10303-21;
