ISO-10303-21;
HEADER;
/* Generated by software containing ST-Developer
 * from STEP Tools, Inc. (www.steptools.com) 
 */

FILE_DESCRIPTION(
/* description */ (''),
/* implementation_level */ '2;1');

FILE_NAME(
/* name */ '',
/* time_stamp */ '2026-04-26T00:50:10+03:00',
/* author */ ('Hp'),
/* organization */ (''),
/* preprocessor_version */ 'ST-DEVELOPER v20.1',
/* originating_system */ 'Autodesk Inventor 2027',
/* authorisation */ '');

FILE_SCHEMA (('AUTOMOTIVE_DESIGN { 1 0 10303 214 3 1 1 }'));
ENDSEC;

DATA;
#10=MECHANICAL_DESIGN_GEOMETRIC_PRESENTATION_REPRESENTATION('',(#16,#17,
#18),#722);
#11=GEOMETRICALLY_BOUNDED_WIREFRAME_SHAPE_REPRESENTATION('',(#12),#721);
#12=GEOMETRIC_CURVE_SET('Sketch2',(#718));
#13=SHAPE_REPRESENTATION_RELATIONSHIP('SRR','None',#729,#15);
#14=SHAPE_REPRESENTATION_RELATIONSHIP('SRR','None',#729,#11);
#15=ADVANCED_BREP_SHAPE_REPRESENTATION('',(#19,#20,#21),#721);
#16=STYLED_ITEM('',(#738),#19);
#17=STYLED_ITEM('',(#738),#20);
#18=STYLED_ITEM('',(#738),#21);
#19=MANIFOLD_SOLID_BREP('Solid1',#430);
#20=MANIFOLD_SOLID_BREP('Solid1',#431);
#21=MANIFOLD_SOLID_BREP('Solid1',#432);
#22=CYLINDRICAL_SURFACE('',#459,7.5);
#23=CYLINDRICAL_SURFACE('',#465,25.);
#24=CYLINDRICAL_SURFACE('',#466,4.);
#25=CYLINDRICAL_SURFACE('',#485,30.);
#26=FACE_BOUND('',#67,.T.);
#27=FACE_BOUND('',#70,.T.);
#28=FACE_BOUND('',#74,.T.);
#29=FACE_BOUND('',#76,.T.);
#30=FACE_BOUND('',#78,.T.);
#31=CIRCLE('',#458,25.);
#32=CIRCLE('',#460,7.5);
#33=CIRCLE('',#461,7.5);
#34=CIRCLE('',#463,25.);
#35=CIRCLE('',#464,4.);
#36=CIRCLE('',#467,4.);
#37=CIRCLE('',#481,30.);
#38=CIRCLE('',#486,30.);
#39=FACE_OUTER_BOUND('',#64,.T.);
#40=FACE_OUTER_BOUND('',#65,.T.);
#41=FACE_OUTER_BOUND('',#66,.T.);
#42=FACE_OUTER_BOUND('',#68,.T.);
#43=FACE_OUTER_BOUND('',#69,.T.);
#44=FACE_OUTER_BOUND('',#71,.T.);
#45=FACE_OUTER_BOUND('',#72,.T.);
#46=FACE_OUTER_BOUND('',#73,.T.);
#47=FACE_OUTER_BOUND('',#75,.T.);
#48=FACE_OUTER_BOUND('',#77,.T.);
#49=FACE_OUTER_BOUND('',#79,.T.);
#50=FACE_OUTER_BOUND('',#80,.T.);
#51=FACE_OUTER_BOUND('',#81,.T.);
#52=FACE_OUTER_BOUND('',#82,.T.);
#53=FACE_OUTER_BOUND('',#83,.T.);
#54=FACE_OUTER_BOUND('',#84,.T.);
#55=FACE_OUTER_BOUND('',#85,.T.);
#56=FACE_OUTER_BOUND('',#86,.T.);
#57=FACE_OUTER_BOUND('',#87,.T.);
#58=FACE_OUTER_BOUND('',#88,.T.);
#59=FACE_OUTER_BOUND('',#89,.T.);
#60=FACE_OUTER_BOUND('',#90,.T.);
#61=FACE_OUTER_BOUND('',#91,.T.);
#62=FACE_OUTER_BOUND('',#92,.T.);
#63=FACE_OUTER_BOUND('',#93,.T.);
#64=EDGE_LOOP('',(#276,#277,#278,#279));
#65=EDGE_LOOP('',(#280,#281,#282,#283));
#66=EDGE_LOOP('',(#284,#285,#286,#287));
#67=EDGE_LOOP('',(#288));
#68=EDGE_LOOP('',(#289,#290,#291,#292));
#69=EDGE_LOOP('',(#293));
#70=EDGE_LOOP('',(#294));
#71=EDGE_LOOP('',(#295,#296,#297,#298));
#72=EDGE_LOOP('',(#299,#300,#301,#302));
#73=EDGE_LOOP('',(#303,#304,#305,#306));
#74=EDGE_LOOP('',(#307));
#75=EDGE_LOOP('',(#308,#309,#310,#311,#312,#313));
#76=EDGE_LOOP('',(#314));
#77=EDGE_LOOP('',(#315,#316,#317,#318,#319,#320));
#78=EDGE_LOOP('',(#321));
#79=EDGE_LOOP('',(#322,#323,#324,#325));
#80=EDGE_LOOP('',(#326,#327,#328,#329));
#81=EDGE_LOOP('',(#330,#331,#332,#333));
#82=EDGE_LOOP('',(#334,#335,#336,#337));
#83=EDGE_LOOP('',(#338,#339,#340,#341));
#84=EDGE_LOOP('',(#342,#343,#344,#345));
#85=EDGE_LOOP('',(#346,#347,#348,#349));
#86=EDGE_LOOP('',(#350,#351,#352,#353));
#87=EDGE_LOOP('',(#354,#355,#356,#357));
#88=EDGE_LOOP('',(#358,#359,#360,#361,#362));
#89=EDGE_LOOP('',(#363,#364,#365,#366));
#90=EDGE_LOOP('',(#367,#368,#369,#370));
#91=EDGE_LOOP('',(#371,#372,#373,#374));
#92=EDGE_LOOP('',(#375,#376,#377,#378));
#93=EDGE_LOOP('',(#379,#380,#381,#382,#383));
#94=LINE('',#606,#140);
#95=LINE('',#608,#141);
#96=LINE('',#610,#142);
#97=LINE('',#611,#143);
#98=LINE('',#615,#144);
#99=LINE('',#617,#145);
#100=LINE('',#619,#146);
#101=LINE('',#620,#147);
#102=LINE('',#622,#148);
#103=LINE('',#623,#149);
#104=LINE('',#630,#150);
#105=LINE('',#638,#151);
#106=LINE('',#641,#152);
#107=LINE('',#646,#153);
#108=LINE('',#647,#154);
#109=LINE('',#648,#155);
#110=LINE('',#651,#156);
#111=LINE('',#652,#157);
#112=LINE('',#655,#158);
#113=LINE('',#656,#159);
#114=LINE('',#658,#160);
#115=LINE('',#663,#161);
#116=LINE('',#665,#162);
#117=LINE('',#667,#163);
#118=LINE('',#668,#164);
#119=LINE('',#671,#165);
#120=LINE('',#673,#166);
#121=LINE('',#674,#167);
#122=LINE('',#677,#168);
#123=LINE('',#678,#169);
#124=LINE('',#681,#170);
#125=LINE('',#682,#171);
#126=LINE('',#684,#172);
#127=LINE('',#689,#173);
#128=LINE('',#691,#174);
#129=LINE('',#693,#175);
#130=LINE('',#694,#176);
#131=LINE('',#697,#177);
#132=LINE('',#699,#178);
#133=LINE('',#702,#179);
#134=LINE('',#705,#180);
#135=LINE('',#706,#181);
#136=LINE('',#709,#182);
#137=LINE('',#710,#183);
#138=LINE('',#713,#184);
#139=LINE('',#714,#185);
#140=VECTOR('',#492,10.);
#141=VECTOR('',#493,10.);
#142=VECTOR('',#494,10.);
#143=VECTOR('',#495,10.);
#144=VECTOR('',#498,10.);
#145=VECTOR('',#499,10.);
#146=VECTOR('',#500,10.);
#147=VECTOR('',#501,10.);
#148=VECTOR('',#504,10.);
#149=VECTOR('',#505,10.);
#150=VECTOR('',#512,7.5);
#151=VECTOR('',#523,25.);
#152=VECTOR('',#526,4.);
#153=VECTOR('',#531,10.);
#154=VECTOR('',#532,10.);
#155=VECTOR('',#533,10.);
#156=VECTOR('',#536,10.);
#157=VECTOR('',#537,10.);
#158=VECTOR('',#540,10.);
#159=VECTOR('',#541,10.);
#160=VECTOR('',#544,10.);
#161=VECTOR('',#549,10.);
#162=VECTOR('',#550,10.);
#163=VECTOR('',#551,10.);
#164=VECTOR('',#552,10.);
#165=VECTOR('',#555,10.);
#166=VECTOR('',#556,10.);
#167=VECTOR('',#557,10.);
#168=VECTOR('',#560,10.);
#169=VECTOR('',#561,10.);
#170=VECTOR('',#564,10.);
#171=VECTOR('',#565,10.);
#172=VECTOR('',#568,10.);
#173=VECTOR('',#573,10.);
#174=VECTOR('',#574,10.);
#175=VECTOR('',#575,10.);
#176=VECTOR('',#576,10.);
#177=VECTOR('',#579,10.);
#178=VECTOR('',#580,10.);
#179=VECTOR('',#583,10.);
#180=VECTOR('',#586,10.);
#181=VECTOR('',#587,10.);
#182=VECTOR('',#590,10.);
#183=VECTOR('',#591,10.);
#184=VECTOR('',#594,10.);
#185=VECTOR('',#595,10.);
#186=VERTEX_POINT('',#604);
#187=VERTEX_POINT('',#605);
#188=VERTEX_POINT('',#607);
#189=VERTEX_POINT('',#609);
#190=VERTEX_POINT('',#613);
#191=VERTEX_POINT('',#614);
#192=VERTEX_POINT('',#616);
#193=VERTEX_POINT('',#618);
#194=VERTEX_POINT('',#624);
#195=VERTEX_POINT('',#627);
#196=VERTEX_POINT('',#629);
#197=VERTEX_POINT('',#633);
#198=VERTEX_POINT('',#635);
#199=VERTEX_POINT('',#640);
#200=VERTEX_POINT('',#644);
#201=VERTEX_POINT('',#645);
#202=VERTEX_POINT('',#650);
#203=VERTEX_POINT('',#654);
#204=VERTEX_POINT('',#661);
#205=VERTEX_POINT('',#662);
#206=VERTEX_POINT('',#664);
#207=VERTEX_POINT('',#666);
#208=VERTEX_POINT('',#670);
#209=VERTEX_POINT('',#672);
#210=VERTEX_POINT('',#676);
#211=VERTEX_POINT('',#680);
#212=VERTEX_POINT('',#687);
#213=VERTEX_POINT('',#688);
#214=VERTEX_POINT('',#690);
#215=VERTEX_POINT('',#692);
#216=VERTEX_POINT('',#696);
#217=VERTEX_POINT('',#698);
#218=VERTEX_POINT('',#700);
#219=VERTEX_POINT('',#704);
#220=VERTEX_POINT('',#708);
#221=VERTEX_POINT('',#712);
#222=EDGE_CURVE('',#186,#187,#94,.T.);
#223=EDGE_CURVE('',#187,#188,#95,.T.);
#224=EDGE_CURVE('',#189,#188,#96,.T.);
#225=EDGE_CURVE('',#186,#189,#97,.T.);
#226=EDGE_CURVE('',#190,#191,#98,.T.);
#227=EDGE_CURVE('',#191,#192,#99,.T.);
#228=EDGE_CURVE('',#193,#192,#100,.T.);
#229=EDGE_CURVE('',#190,#193,#101,.T.);
#230=EDGE_CURVE('',#191,#186,#102,.T.);
#231=EDGE_CURVE('',#192,#189,#103,.T.);
#232=EDGE_CURVE('',#194,#194,#31,.T.);
#233=EDGE_CURVE('',#195,#195,#32,.T.);
#234=EDGE_CURVE('',#195,#196,#104,.T.);
#235=EDGE_CURVE('',#196,#196,#33,.T.);
#236=EDGE_CURVE('',#197,#197,#34,.T.);
#237=EDGE_CURVE('',#198,#198,#35,.T.);
#238=EDGE_CURVE('',#197,#194,#105,.T.);
#239=EDGE_CURVE('',#198,#199,#106,.T.);
#240=EDGE_CURVE('',#199,#199,#36,.T.);
#241=EDGE_CURVE('',#200,#201,#107,.T.);
#242=EDGE_CURVE('',#188,#201,#108,.T.);
#243=EDGE_CURVE('',#187,#200,#109,.T.);
#244=EDGE_CURVE('',#202,#200,#110,.T.);
#245=EDGE_CURVE('',#202,#190,#111,.T.);
#246=EDGE_CURVE('',#201,#203,#112,.T.);
#247=EDGE_CURVE('',#203,#193,#113,.T.);
#248=EDGE_CURVE('',#203,#202,#114,.T.);
#249=EDGE_CURVE('',#204,#205,#115,.T.);
#250=EDGE_CURVE('',#205,#206,#116,.T.);
#251=EDGE_CURVE('',#206,#207,#117,.T.);
#252=EDGE_CURVE('',#207,#204,#118,.T.);
#253=EDGE_CURVE('',#208,#205,#119,.T.);
#254=EDGE_CURVE('',#209,#208,#120,.T.);
#255=EDGE_CURVE('',#206,#209,#121,.T.);
#256=EDGE_CURVE('',#210,#209,#122,.T.);
#257=EDGE_CURVE('',#207,#210,#123,.T.);
#258=EDGE_CURVE('',#211,#210,#124,.T.);
#259=EDGE_CURVE('',#204,#211,#125,.T.);
#260=EDGE_CURVE('',#208,#211,#126,.T.);
#261=EDGE_CURVE('',#212,#213,#127,.T.);
#262=EDGE_CURVE('',#214,#212,#128,.T.);
#263=EDGE_CURVE('',#215,#214,#129,.T.);
#264=EDGE_CURVE('',#213,#215,#130,.T.);
#265=EDGE_CURVE('',#216,#214,#131,.T.);
#266=EDGE_CURVE('',#217,#216,#132,.T.);
#267=EDGE_CURVE('',#218,#217,#37,.T.);
#268=EDGE_CURVE('',#215,#218,#133,.T.);
#269=EDGE_CURVE('',#218,#219,#134,.T.);
#270=EDGE_CURVE('',#213,#219,#135,.T.);
#271=EDGE_CURVE('',#220,#212,#136,.T.);
#272=EDGE_CURVE('',#216,#220,#137,.T.);
#273=EDGE_CURVE('',#221,#220,#138,.T.);
#274=EDGE_CURVE('',#217,#221,#139,.T.);
#275=EDGE_CURVE('',#219,#221,#38,.T.);
#276=ORIENTED_EDGE('',*,*,#222,.T.);
#277=ORIENTED_EDGE('',*,*,#223,.T.);
#278=ORIENTED_EDGE('',*,*,#224,.F.);
#279=ORIENTED_EDGE('',*,*,#225,.F.);
#280=ORIENTED_EDGE('',*,*,#226,.T.);
#281=ORIENTED_EDGE('',*,*,#227,.T.);
#282=ORIENTED_EDGE('',*,*,#228,.F.);
#283=ORIENTED_EDGE('',*,*,#229,.F.);
#284=ORIENTED_EDGE('',*,*,#230,.T.);
#285=ORIENTED_EDGE('',*,*,#225,.T.);
#286=ORIENTED_EDGE('',*,*,#231,.F.);
#287=ORIENTED_EDGE('',*,*,#227,.F.);
#288=ORIENTED_EDGE('',*,*,#232,.T.);
#289=ORIENTED_EDGE('',*,*,#233,.F.);
#290=ORIENTED_EDGE('',*,*,#234,.T.);
#291=ORIENTED_EDGE('',*,*,#235,.T.);
#292=ORIENTED_EDGE('',*,*,#234,.F.);
#293=ORIENTED_EDGE('',*,*,#236,.T.);
#294=ORIENTED_EDGE('',*,*,#237,.T.);
#295=ORIENTED_EDGE('',*,*,#236,.F.);
#296=ORIENTED_EDGE('',*,*,#238,.T.);
#297=ORIENTED_EDGE('',*,*,#232,.F.);
#298=ORIENTED_EDGE('',*,*,#238,.F.);
#299=ORIENTED_EDGE('',*,*,#237,.F.);
#300=ORIENTED_EDGE('',*,*,#239,.T.);
#301=ORIENTED_EDGE('',*,*,#240,.F.);
#302=ORIENTED_EDGE('',*,*,#239,.F.);
#303=ORIENTED_EDGE('',*,*,#241,.T.);
#304=ORIENTED_EDGE('',*,*,#242,.F.);
#305=ORIENTED_EDGE('',*,*,#223,.F.);
#306=ORIENTED_EDGE('',*,*,#243,.T.);
#307=ORIENTED_EDGE('',*,*,#240,.T.);
#308=ORIENTED_EDGE('',*,*,#244,.T.);
#309=ORIENTED_EDGE('',*,*,#243,.F.);
#310=ORIENTED_EDGE('',*,*,#222,.F.);
#311=ORIENTED_EDGE('',*,*,#230,.F.);
#312=ORIENTED_EDGE('',*,*,#226,.F.);
#313=ORIENTED_EDGE('',*,*,#245,.F.);
#314=ORIENTED_EDGE('',*,*,#235,.F.);
#315=ORIENTED_EDGE('',*,*,#246,.T.);
#316=ORIENTED_EDGE('',*,*,#247,.T.);
#317=ORIENTED_EDGE('',*,*,#228,.T.);
#318=ORIENTED_EDGE('',*,*,#231,.T.);
#319=ORIENTED_EDGE('',*,*,#224,.T.);
#320=ORIENTED_EDGE('',*,*,#242,.T.);
#321=ORIENTED_EDGE('',*,*,#233,.T.);
#322=ORIENTED_EDGE('',*,*,#248,.T.);
#323=ORIENTED_EDGE('',*,*,#245,.T.);
#324=ORIENTED_EDGE('',*,*,#229,.T.);
#325=ORIENTED_EDGE('',*,*,#247,.F.);
#326=ORIENTED_EDGE('',*,*,#246,.F.);
#327=ORIENTED_EDGE('',*,*,#241,.F.);
#328=ORIENTED_EDGE('',*,*,#244,.F.);
#329=ORIENTED_EDGE('',*,*,#248,.F.);
#330=ORIENTED_EDGE('',*,*,#249,.T.);
#331=ORIENTED_EDGE('',*,*,#250,.T.);
#332=ORIENTED_EDGE('',*,*,#251,.T.);
#333=ORIENTED_EDGE('',*,*,#252,.T.);
#334=ORIENTED_EDGE('',*,*,#253,.F.);
#335=ORIENTED_EDGE('',*,*,#254,.F.);
#336=ORIENTED_EDGE('',*,*,#255,.F.);
#337=ORIENTED_EDGE('',*,*,#250,.F.);
#338=ORIENTED_EDGE('',*,*,#255,.T.);
#339=ORIENTED_EDGE('',*,*,#256,.F.);
#340=ORIENTED_EDGE('',*,*,#257,.F.);
#341=ORIENTED_EDGE('',*,*,#251,.F.);
#342=ORIENTED_EDGE('',*,*,#257,.T.);
#343=ORIENTED_EDGE('',*,*,#258,.F.);
#344=ORIENTED_EDGE('',*,*,#259,.F.);
#345=ORIENTED_EDGE('',*,*,#252,.F.);
#346=ORIENTED_EDGE('',*,*,#259,.T.);
#347=ORIENTED_EDGE('',*,*,#260,.F.);
#348=ORIENTED_EDGE('',*,*,#253,.T.);
#349=ORIENTED_EDGE('',*,*,#249,.F.);
#350=ORIENTED_EDGE('',*,*,#260,.T.);
#351=ORIENTED_EDGE('',*,*,#258,.T.);
#352=ORIENTED_EDGE('',*,*,#256,.T.);
#353=ORIENTED_EDGE('',*,*,#254,.T.);
#354=ORIENTED_EDGE('',*,*,#261,.F.);
#355=ORIENTED_EDGE('',*,*,#262,.F.);
#356=ORIENTED_EDGE('',*,*,#263,.F.);
#357=ORIENTED_EDGE('',*,*,#264,.F.);
#358=ORIENTED_EDGE('',*,*,#263,.T.);
#359=ORIENTED_EDGE('',*,*,#265,.F.);
#360=ORIENTED_EDGE('',*,*,#266,.F.);
#361=ORIENTED_EDGE('',*,*,#267,.F.);
#362=ORIENTED_EDGE('',*,*,#268,.F.);
#363=ORIENTED_EDGE('',*,*,#264,.T.);
#364=ORIENTED_EDGE('',*,*,#268,.T.);
#365=ORIENTED_EDGE('',*,*,#269,.T.);
#366=ORIENTED_EDGE('',*,*,#270,.F.);
#367=ORIENTED_EDGE('',*,*,#262,.T.);
#368=ORIENTED_EDGE('',*,*,#271,.F.);
#369=ORIENTED_EDGE('',*,*,#272,.F.);
#370=ORIENTED_EDGE('',*,*,#265,.T.);
#371=ORIENTED_EDGE('',*,*,#266,.T.);
#372=ORIENTED_EDGE('',*,*,#272,.T.);
#373=ORIENTED_EDGE('',*,*,#273,.F.);
#374=ORIENTED_EDGE('',*,*,#274,.F.);
#375=ORIENTED_EDGE('',*,*,#267,.T.);
#376=ORIENTED_EDGE('',*,*,#274,.T.);
#377=ORIENTED_EDGE('',*,*,#275,.F.);
#378=ORIENTED_EDGE('',*,*,#269,.F.);
#379=ORIENTED_EDGE('',*,*,#261,.T.);
#380=ORIENTED_EDGE('',*,*,#270,.T.);
#381=ORIENTED_EDGE('',*,*,#275,.T.);
#382=ORIENTED_EDGE('',*,*,#273,.T.);
#383=ORIENTED_EDGE('',*,*,#271,.T.);
#384=PLANE('',#455);
#385=PLANE('',#456);
#386=PLANE('',#457);
#387=PLANE('',#462);
#388=PLANE('',#468);
#389=PLANE('',#469);
#390=PLANE('',#470);
#391=PLANE('',#471);
#392=PLANE('',#472);
#393=PLANE('',#473);
#394=PLANE('',#474);
#395=PLANE('',#475);
#396=PLANE('',#476);
#397=PLANE('',#477);
#398=PLANE('',#478);
#399=PLANE('',#479);
#400=PLANE('',#480);
#401=PLANE('',#482);
#402=PLANE('',#483);
#403=PLANE('',#484);
#404=PLANE('',#487);
#405=ADVANCED_FACE('',(#39),#384,.T.);
#406=ADVANCED_FACE('',(#40),#385,.T.);
#407=ADVANCED_FACE('',(#41,#26),#386,.T.);
#408=ADVANCED_FACE('',(#42),#22,.F.);
#409=ADVANCED_FACE('',(#43,#27),#387,.T.);
#410=ADVANCED_FACE('',(#44),#23,.T.);
#411=ADVANCED_FACE('',(#45),#24,.F.);
#412=ADVANCED_FACE('',(#46,#28),#388,.T.);
#413=ADVANCED_FACE('',(#47,#29),#389,.F.);
#414=ADVANCED_FACE('',(#48,#30),#390,.T.);
#415=ADVANCED_FACE('',(#49),#391,.T.);
#416=ADVANCED_FACE('',(#50),#392,.F.);
#417=ADVANCED_FACE('',(#51),#393,.T.);
#418=ADVANCED_FACE('',(#52),#394,.T.);
#419=ADVANCED_FACE('',(#53),#395,.T.);
#420=ADVANCED_FACE('',(#54),#396,.T.);
#421=ADVANCED_FACE('',(#55),#397,.T.);
#422=ADVANCED_FACE('',(#56),#398,.T.);
#423=ADVANCED_FACE('',(#57),#399,.F.);
#424=ADVANCED_FACE('',(#58),#400,.F.);
#425=ADVANCED_FACE('',(#59),#401,.T.);
#426=ADVANCED_FACE('',(#60),#402,.T.);
#427=ADVANCED_FACE('',(#61),#403,.T.);
#428=ADVANCED_FACE('',(#62),#25,.F.);
#429=ADVANCED_FACE('',(#63),#404,.T.);
#430=CLOSED_SHELL('',(#405,#406,#407,#408,#409,#410,#411,#412,#413,#414,
#415,#416));
#431=CLOSED_SHELL('',(#417,#418,#419,#420,#421,#422));
#432=CLOSED_SHELL('',(#423,#424,#425,#426,#427,#428,#429));
#433=DERIVED_UNIT_ELEMENT(#436,1.);
#434=DERIVED_UNIT_ELEMENT(#724,-3.);
#435=DIMENSIONAL_EXPONENTS(0.,1.,0.,0.,0.,0.,0.);
#436=(
CONVERSION_BASED_UNIT('gram',#438)
MASS_UNIT()
NAMED_UNIT(#435)
);
#437=(
MASS_UNIT()
NAMED_UNIT(*)
SI_UNIT(.KILO.,.GRAM.)
);
#438=MASS_MEASURE_WITH_UNIT(MASS_MEASURE(0.001),#437);
#439=DERIVED_UNIT((#433,#434));
#440=MEASURE_REPRESENTATION_ITEM('density measure',
POSITIVE_RATIO_MEASURE(1.),#439);
#441=PROPERTY_DEFINITION_REPRESENTATION(#446,#443);
#442=PROPERTY_DEFINITION_REPRESENTATION(#447,#444);
#443=REPRESENTATION('material name',(#445),#721);
#444=REPRESENTATION('density',(#440),#721);
#445=DESCRIPTIVE_REPRESENTATION_ITEM('Generic','Generic');
#446=PROPERTY_DEFINITION('material property','material name',#731);
#447=PROPERTY_DEFINITION('material property','density of part',#731);
#448=DATE_TIME_ROLE('creation_date');
#449=APPLIED_DATE_AND_TIME_ASSIGNMENT(#450,#448,(#731));
#450=DATE_AND_TIME(#451,#452);
#451=CALENDAR_DATE(2026,26,4);
#452=LOCAL_TIME(0,0,0.,#453);
#453=COORDINATED_UNIVERSAL_TIME_OFFSET(0,0,.BEHIND.);
#454=AXIS2_PLACEMENT_3D('',#602,#488,#489);
#455=AXIS2_PLACEMENT_3D('',#603,#490,#491);
#456=AXIS2_PLACEMENT_3D('',#612,#496,#497);
#457=AXIS2_PLACEMENT_3D('',#621,#502,#503);
#458=AXIS2_PLACEMENT_3D('',#625,#506,#507);
#459=AXIS2_PLACEMENT_3D('',#626,#508,#509);
#460=AXIS2_PLACEMENT_3D('',#628,#510,#511);
#461=AXIS2_PLACEMENT_3D('',#631,#513,#514);
#462=AXIS2_PLACEMENT_3D('',#632,#515,#516);
#463=AXIS2_PLACEMENT_3D('',#634,#517,#518);
#464=AXIS2_PLACEMENT_3D('',#636,#519,#520);
#465=AXIS2_PLACEMENT_3D('',#637,#521,#522);
#466=AXIS2_PLACEMENT_3D('',#639,#524,#525);
#467=AXIS2_PLACEMENT_3D('',#642,#527,#528);
#468=AXIS2_PLACEMENT_3D('',#643,#529,#530);
#469=AXIS2_PLACEMENT_3D('',#649,#534,#535);
#470=AXIS2_PLACEMENT_3D('',#653,#538,#539);
#471=AXIS2_PLACEMENT_3D('',#657,#542,#543);
#472=AXIS2_PLACEMENT_3D('',#659,#545,#546);
#473=AXIS2_PLACEMENT_3D('',#660,#547,#548);
#474=AXIS2_PLACEMENT_3D('',#669,#553,#554);
#475=AXIS2_PLACEMENT_3D('',#675,#558,#559);
#476=AXIS2_PLACEMENT_3D('',#679,#562,#563);
#477=AXIS2_PLACEMENT_3D('',#683,#566,#567);
#478=AXIS2_PLACEMENT_3D('',#685,#569,#570);
#479=AXIS2_PLACEMENT_3D('',#686,#571,#572);
#480=AXIS2_PLACEMENT_3D('',#695,#577,#578);
#481=AXIS2_PLACEMENT_3D('',#701,#581,#582);
#482=AXIS2_PLACEMENT_3D('',#703,#584,#585);
#483=AXIS2_PLACEMENT_3D('',#707,#588,#589);
#484=AXIS2_PLACEMENT_3D('',#711,#592,#593);
#485=AXIS2_PLACEMENT_3D('',#715,#596,#597);
#486=AXIS2_PLACEMENT_3D('',#716,#598,#599);
#487=AXIS2_PLACEMENT_3D('',#717,#600,#601);
#488=DIRECTION('axis',(0.,0.,1.));
#489=DIRECTION('refdir',(1.,0.,0.));
#490=DIRECTION('center_axis',(-1.,-5.32907051820075E-16,0.));
#491=DIRECTION('ref_axis',(5.32907051820075E-16,-1.,0.));
#492=DIRECTION('',(5.32907051820075E-16,-1.,0.));
#493=DIRECTION('',(0.,0.,1.));
#494=DIRECTION('',(5.32907051820075E-16,-1.,0.));
#495=DIRECTION('',(0.,0.,1.));
#496=DIRECTION('center_axis',(-1.,0.,0.));
#497=DIRECTION('ref_axis',(0.,-1.,0.));
#498=DIRECTION('',(0.,-1.,0.));
#499=DIRECTION('',(0.,0.,1.));
#500=DIRECTION('',(0.,-1.,0.));
#501=DIRECTION('',(0.,0.,1.));
#502=DIRECTION('center_axis',(0.,1.,0.));
#503=DIRECTION('ref_axis',(-1.,0.,0.));
#504=DIRECTION('',(-1.,0.,0.));
#505=DIRECTION('',(-1.,0.,0.));
#506=DIRECTION('center_axis',(0.,-1.,0.));
#507=DIRECTION('ref_axis',(1.,0.,0.));
#508=DIRECTION('center_axis',(0.,0.,1.));
#509=DIRECTION('ref_axis',(-1.,0.,0.));
#510=DIRECTION('center_axis',(0.,0.,-1.));
#511=DIRECTION('ref_axis',(-1.,0.,0.));
#512=DIRECTION('',(0.,0.,-1.));
#513=DIRECTION('center_axis',(0.,0.,-1.));
#514=DIRECTION('ref_axis',(-1.,0.,0.));
#515=DIRECTION('center_axis',(0.,1.,0.));
#516=DIRECTION('ref_axis',(0.,0.,1.));
#517=DIRECTION('center_axis',(0.,1.,0.));
#518=DIRECTION('ref_axis',(1.,0.,0.));
#519=DIRECTION('center_axis',(0.,-1.,0.));
#520=DIRECTION('ref_axis',(1.,0.,0.));
#521=DIRECTION('center_axis',(0.,1.,0.));
#522=DIRECTION('ref_axis',(1.,0.,0.));
#523=DIRECTION('',(0.,-1.,0.));
#524=DIRECTION('center_axis',(0.,1.,0.));
#525=DIRECTION('ref_axis',(1.,0.,0.));
#526=DIRECTION('',(0.,-1.,0.));
#527=DIRECTION('center_axis',(0.,1.,0.));
#528=DIRECTION('ref_axis',(1.,0.,0.));
#529=DIRECTION('center_axis',(0.,-1.,0.));
#530=DIRECTION('ref_axis',(1.,0.,0.));
#531=DIRECTION('',(2.22044604925031E-16,0.,1.));
#532=DIRECTION('',(1.,0.,0.));
#533=DIRECTION('',(1.,0.,0.));
#534=DIRECTION('center_axis',(0.,0.,1.));
#535=DIRECTION('ref_axis',(1.,0.,0.));
#536=DIRECTION('',(5.9211894646675E-17,-1.,0.));
#537=DIRECTION('',(-1.,-5.9211894646675E-17,0.));
#538=DIRECTION('center_axis',(0.,0.,1.));
#539=DIRECTION('ref_axis',(1.,0.,0.));
#540=DIRECTION('',(-5.9211894646675E-17,1.,0.));
#541=DIRECTION('',(-1.,-5.9211894646675E-17,0.));
#542=DIRECTION('center_axis',(-5.9211894646675E-17,1.,0.));
#543=DIRECTION('ref_axis',(-1.,-5.9211894646675E-17,0.));
#544=DIRECTION('',(-2.22044604925031E-16,-1.31476817536835E-32,-1.));
#545=DIRECTION('center_axis',(-1.,-5.9211894646675E-17,2.22044604925031E-16));
#546=DIRECTION('ref_axis',(-5.9211894646675E-17,1.,0.));
#547=DIRECTION('center_axis',(0.,-1.,0.));
#548=DIRECTION('ref_axis',(0.,0.,-1.));
#549=DIRECTION('',(0.,0.,-1.));
#550=DIRECTION('',(1.,0.,0.));
#551=DIRECTION('',(0.,0.,1.));
#552=DIRECTION('',(-1.,0.,0.));
#553=DIRECTION('center_axis',(0.,0.,-1.));
#554=DIRECTION('ref_axis',(-1.,0.,0.));
#555=DIRECTION('',(0.,-1.,0.));
#556=DIRECTION('',(-1.,0.,0.));
#557=DIRECTION('',(0.,1.,0.));
#558=DIRECTION('center_axis',(1.,0.,0.));
#559=DIRECTION('ref_axis',(0.,0.,-1.));
#560=DIRECTION('',(0.,0.,-1.));
#561=DIRECTION('',(0.,1.,0.));
#562=DIRECTION('center_axis',(0.,0.,1.));
#563=DIRECTION('ref_axis',(1.,0.,0.));
#564=DIRECTION('',(1.,0.,0.));
#565=DIRECTION('',(0.,1.,0.));
#566=DIRECTION('center_axis',(-1.,0.,0.));
#567=DIRECTION('ref_axis',(0.,0.,1.));
#568=DIRECTION('',(0.,0.,1.));
#569=DIRECTION('center_axis',(0.,1.,0.));
#570=DIRECTION('ref_axis',(0.,0.,1.));
#571=DIRECTION('center_axis',(1.,5.9211894646675E-17,-2.22044604925031E-16));
#572=DIRECTION('ref_axis',(5.9211894646675E-17,-1.,0.));
#573=DIRECTION('',(5.9211894646675E-17,-1.,0.));
#574=DIRECTION('',(2.22044604925031E-16,1.31476817536835E-32,1.));
#575=DIRECTION('',(-5.9211894646675E-17,1.,0.));
#576=DIRECTION('',(-2.22044604925031E-16,0.,-1.));
#577=DIRECTION('center_axis',(0.,0.,1.));
#578=DIRECTION('ref_axis',(1.,0.,0.));
#579=DIRECTION('',(-1.,-5.9211894646675E-17,0.));
#580=DIRECTION('',(-1.77635683940025E-16,1.,0.));
#581=DIRECTION('center_axis',(0.,0.,-1.));
#582=DIRECTION('ref_axis',(5.9211894646675E-16,-1.,0.));
#583=DIRECTION('',(1.,0.,0.));
#584=DIRECTION('center_axis',(0.,-1.,0.));
#585=DIRECTION('ref_axis',(1.,0.,0.));
#586=DIRECTION('',(0.,0.,1.));
#587=DIRECTION('',(1.,0.,0.));
#588=DIRECTION('center_axis',(-5.9211894646675E-17,1.,0.));
#589=DIRECTION('ref_axis',(-1.,-5.9211894646675E-17,0.));
#590=DIRECTION('',(-1.,-5.9211894646675E-17,0.));
#591=DIRECTION('',(0.,0.,1.));
#592=DIRECTION('center_axis',(1.,1.77635683940025E-16,0.));
#593=DIRECTION('ref_axis',(-1.77635683940025E-16,1.,0.));
#594=DIRECTION('',(-1.77635683940025E-16,1.,0.));
#595=DIRECTION('',(0.,0.,1.));
#596=DIRECTION('center_axis',(0.,0.,1.));
#597=DIRECTION('ref_axis',(5.9211894646675E-16,-1.,0.));
#598=DIRECTION('center_axis',(0.,0.,-1.));
#599=DIRECTION('ref_axis',(5.9211894646675E-16,-1.,0.));
#600=DIRECTION('center_axis',(0.,0.,1.));
#601=DIRECTION('ref_axis',(1.,0.,0.));
#602=CARTESIAN_POINT('',(0.,0.,0.));
#603=CARTESIAN_POINT('Origin',(-74.3899241798155,17.8005158353966,0.));
#604=CARTESIAN_POINT('',(-74.3899241798155,17.8005158353966,0.));
#605=CARTESIAN_POINT('',(-74.3899241798154,-57.1994841646033,0.));
#606=CARTESIAN_POINT('',(-74.3899241798155,42.8005158353967,0.));
#607=CARTESIAN_POINT('',(-74.3899241798154,-57.1994841646033,75.));
#608=CARTESIAN_POINT('',(-74.3899241798154,-57.1994841646033,0.));
#609=CARTESIAN_POINT('',(-74.3899241798155,17.8005158353966,75.));
#610=CARTESIAN_POINT('',(-74.3899241798155,42.8005158353967,75.));
#611=CARTESIAN_POINT('',(-74.3899241798155,17.8005158353966,0.));
#612=CARTESIAN_POINT('Origin',(0.61007582018453,42.8005158353966,0.));
#613=CARTESIAN_POINT('',(0.61007582018453,42.8005158353966,0.));
#614=CARTESIAN_POINT('',(0.61007582018453,17.8005158353966,0.));
#615=CARTESIAN_POINT('',(0.61007582018453,42.8005158353966,0.));
#616=CARTESIAN_POINT('',(0.61007582018453,17.8005158353966,75.));
#617=CARTESIAN_POINT('',(0.61007582018453,17.8005158353966,0.));
#618=CARTESIAN_POINT('',(0.61007582018453,42.8005158353966,75.));
#619=CARTESIAN_POINT('',(0.61007582018453,42.8005158353966,75.));
#620=CARTESIAN_POINT('',(0.61007582018453,42.8005158353966,0.));
#621=CARTESIAN_POINT('Origin',(0.61007582018453,17.8005158353966,0.));
#622=CARTESIAN_POINT('',(0.61007582018453,17.8005158353966,0.));
#623=CARTESIAN_POINT('',(0.61007582018453,17.8005158353966,75.));
#624=CARTESIAN_POINT('',(-59.7700646113357,17.8005158353966,37.2922473560914));
#625=CARTESIAN_POINT('Origin',(-34.7700646113357,17.8005158353966,37.2922473560914));
#626=CARTESIAN_POINT('Origin',(0.,0.,0.));
#627=CARTESIAN_POINT('',(7.5,0.,75.));
#628=CARTESIAN_POINT('Origin',(0.,0.,75.));
#629=CARTESIAN_POINT('',(7.5,9.18485099360515E-16,0.));
#630=CARTESIAN_POINT('',(7.5,9.18485099360515E-16,0.));
#631=CARTESIAN_POINT('Origin',(0.,0.,0.));
#632=CARTESIAN_POINT('Origin',(-34.7700646113357,67.8005158353966,37.2922473560914));
#633=CARTESIAN_POINT('',(-59.7700646113357,67.8005158353966,37.2922473560914));
#634=CARTESIAN_POINT('Origin',(-34.7700646113357,67.8005158353966,37.2922473560914));
#635=CARTESIAN_POINT('',(-39.215653874576,67.8005158353966,36.1177655926787));
#636=CARTESIAN_POINT('Origin',(-35.215653874576,67.8005158353966,36.1177655926787));
#637=CARTESIAN_POINT('Origin',(-34.7700646113357,17.8005158353966,37.2922473560914));
#638=CARTESIAN_POINT('',(-59.7700646113357,17.8005158353966,37.2922473560914));
#639=CARTESIAN_POINT('Origin',(-35.215653874576,-141.364490798122,36.1177655926787));
#640=CARTESIAN_POINT('',(-39.215653874576,-57.1994841646033,36.1177655926787));
#641=CARTESIAN_POINT('',(-39.215653874576,-141.364490798122,36.1177655926787));
#642=CARTESIAN_POINT('Origin',(-35.215653874576,-57.1994841646033,36.1177655926787));
#643=CARTESIAN_POINT('Origin',(-74.3899241798154,-57.1994841646033,0.));
#644=CARTESIAN_POINT('',(37.193886686556,-57.1994841646033,0.));
#645=CARTESIAN_POINT('',(37.193886686556,-57.1994841646033,75.));
#646=CARTESIAN_POINT('',(37.193886686556,-57.1994841646033,21.3997448505245));
#647=CARTESIAN_POINT('',(-74.3899241798154,-57.1994841646033,75.));
#648=CARTESIAN_POINT('',(-74.3899241798154,-57.1994841646033,0.));
#649=CARTESIAN_POINT('Origin',(0.610075820184552,-7.19948416460335,0.));
#650=CARTESIAN_POINT('',(37.193886686556,42.8005158353967,0.));
#651=CARTESIAN_POINT('',(37.193886686556,-86.7819874813628,0.));
#652=CARTESIAN_POINT('',(75.6100758201846,42.8005158353967,0.));
#653=CARTESIAN_POINT('Origin',(0.610075820184552,-7.19948416460335,75.));
#654=CARTESIAN_POINT('',(37.193886686556,42.8005158353967,75.));
#655=CARTESIAN_POINT('',(37.193886686556,-86.7819874813628,75.));
#656=CARTESIAN_POINT('',(75.6100758201846,42.8005158353967,75.));
#657=CARTESIAN_POINT('Origin',(75.6100758201846,42.8005158353967,0.));
#658=CARTESIAN_POINT('',(37.193886686556,42.8005158353967,21.3997448505245));
#659=CARTESIAN_POINT('Origin',(37.193886686556,-166.364490798122,42.799489701049));
#660=CARTESIAN_POINT('Origin',(0.79812784345088,-16.75,131.040040486252));
#661=CARTESIAN_POINT('',(-74.2018721565491,-16.75,156.040040486252));
#662=CARTESIAN_POINT('',(-74.2018721565491,-16.75,106.040040486252));
#663=CARTESIAN_POINT('',(-74.2018721565491,-16.75,106.040040486252));
#664=CARTESIAN_POINT('',(75.7981278434509,-16.75,106.040040486252));
#665=CARTESIAN_POINT('',(75.7981278434509,-16.75,106.040040486252));
#666=CARTESIAN_POINT('',(75.7981278434509,-16.75,156.040040486252));
#667=CARTESIAN_POINT('',(75.7981278434509,-16.75,156.040040486252));
#668=CARTESIAN_POINT('',(-74.2018721565491,-16.75,156.040040486252));
#669=CARTESIAN_POINT('Origin',(75.7981278434509,0.,106.040040486252));
#670=CARTESIAN_POINT('',(-74.2018721565491,16.75,106.040040486252));
#671=CARTESIAN_POINT('',(-74.2018721565491,0.,106.040040486252));
#672=CARTESIAN_POINT('',(75.7981278434509,16.75,106.040040486252));
#673=CARTESIAN_POINT('',(75.7981278434509,16.75,106.040040486252));
#674=CARTESIAN_POINT('',(75.7981278434509,0.,106.040040486252));
#675=CARTESIAN_POINT('Origin',(75.7981278434509,0.,156.040040486252));
#676=CARTESIAN_POINT('',(75.7981278434509,16.75,156.040040486252));
#677=CARTESIAN_POINT('',(75.7981278434509,16.75,156.040040486252));
#678=CARTESIAN_POINT('',(75.7981278434509,0.,156.040040486252));
#679=CARTESIAN_POINT('Origin',(-74.2018721565491,0.,156.040040486252));
#680=CARTESIAN_POINT('',(-74.2018721565491,16.75,156.040040486252));
#681=CARTESIAN_POINT('',(-74.2018721565491,16.75,156.040040486252));
#682=CARTESIAN_POINT('',(-74.2018721565491,0.,156.040040486252));
#683=CARTESIAN_POINT('Origin',(-74.2018721565491,0.,106.040040486252));
#684=CARTESIAN_POINT('',(-74.2018721565491,16.75,106.040040486252));
#685=CARTESIAN_POINT('Origin',(0.79812784345088,16.75,131.040040486252));
#686=CARTESIAN_POINT('Origin',(42.193886686556,-166.364490798122,42.799489701049));
#687=CARTESIAN_POINT('',(42.193886686556,42.8005158353967,75.));
#688=CARTESIAN_POINT('',(42.193886686556,-57.1994841646033,75.));
#689=CARTESIAN_POINT('',(42.193886686556,-86.7819874813628,75.));
#690=CARTESIAN_POINT('',(42.193886686556,42.8005158353967,0.));
#691=CARTESIAN_POINT('',(42.193886686556,42.8005158353967,21.3997448505245));
#692=CARTESIAN_POINT('',(42.193886686556,-57.1994841646033,0.));
#693=CARTESIAN_POINT('',(42.193886686556,-86.7819874813628,0.));
#694=CARTESIAN_POINT('',(42.193886686556,-57.1994841646033,21.3997448505245));
#695=CARTESIAN_POINT('Origin',(0.610075820184552,-7.19948416460335,0.));
#696=CARTESIAN_POINT('',(75.6100758201846,42.8005158353967,0.));
#697=CARTESIAN_POINT('',(75.6100758201846,42.8005158353967,0.));
#698=CARTESIAN_POINT('',(75.6100758201846,-27.1994841646034,0.));
#699=CARTESIAN_POINT('',(75.6100758201846,-57.1994841646033,0.));
#700=CARTESIAN_POINT('',(45.6100758201846,-57.1994841646033,0.));
#701=CARTESIAN_POINT('Origin',(75.6100758201846,-57.1994841646033,0.));
#702=CARTESIAN_POINT('',(-74.3899241798154,-57.1994841646033,0.));
#703=CARTESIAN_POINT('Origin',(-74.3899241798154,-57.1994841646033,0.));
#704=CARTESIAN_POINT('',(45.6100758201846,-57.1994841646033,75.));
#705=CARTESIAN_POINT('',(45.6100758201846,-57.1994841646033,0.));
#706=CARTESIAN_POINT('',(-74.3899241798154,-57.1994841646033,75.));
#707=CARTESIAN_POINT('Origin',(75.6100758201846,42.8005158353967,0.));
#708=CARTESIAN_POINT('',(75.6100758201846,42.8005158353967,75.));
#709=CARTESIAN_POINT('',(75.6100758201846,42.8005158353967,75.));
#710=CARTESIAN_POINT('',(75.6100758201846,42.8005158353967,0.));
#711=CARTESIAN_POINT('Origin',(75.6100758201846,-27.1994841646034,0.));
#712=CARTESIAN_POINT('',(75.6100758201846,-27.1994841646034,75.));
#713=CARTESIAN_POINT('',(75.6100758201846,-57.1994841646033,75.));
#714=CARTESIAN_POINT('',(75.6100758201846,-27.1994841646034,0.));
#715=CARTESIAN_POINT('Origin',(75.6100758201846,-57.1994841646033,0.));
#716=CARTESIAN_POINT('Origin',(75.6100758201846,-57.1994841646033,75.));
#717=CARTESIAN_POINT('Origin',(0.610075820184552,-7.19948416460335,75.));
#718=CARTESIAN_POINT('',(0.,17.8005158353966,0.));
#719=UNCERTAINTY_MEASURE_WITH_UNIT(LENGTH_MEASURE(0.01),#723,
'DISTANCE_ACCURACY_VALUE',
'Maximum model space distance between geometric entities at asserted c
onnectivities');
#720=UNCERTAINTY_MEASURE_WITH_UNIT(LENGTH_MEASURE(0.01),#723,
'DISTANCE_ACCURACY_VALUE',
'Maximum model space distance between geometric entities at asserted c
onnectivities');
#721=(
GEOMETRIC_REPRESENTATION_CONTEXT(3)
GLOBAL_UNCERTAINTY_ASSIGNED_CONTEXT((#719))
GLOBAL_UNIT_ASSIGNED_CONTEXT((#723,#725,#726))
REPRESENTATION_CONTEXT('','3D')
);
#722=(
GEOMETRIC_REPRESENTATION_CONTEXT(3)
GLOBAL_UNCERTAINTY_ASSIGNED_CONTEXT((#720))
GLOBAL_UNIT_ASSIGNED_CONTEXT((#723,#725,#726))
REPRESENTATION_CONTEXT('','3D')
);
#723=(
LENGTH_UNIT()
NAMED_UNIT(*)
SI_UNIT(.MILLI.,.METRE.)
);
#724=(
LENGTH_UNIT()
NAMED_UNIT(*)
SI_UNIT(.CENTI.,.METRE.)
);
#725=(
NAMED_UNIT(*)
PLANE_ANGLE_UNIT()
SI_UNIT($,.RADIAN.)
);
#726=(
NAMED_UNIT(*)
SI_UNIT($,.STERADIAN.)
SOLID_ANGLE_UNIT()
);
#727=SHAPE_DEFINITION_REPRESENTATION(#728,#729);
#728=PRODUCT_DEFINITION_SHAPE('',$,#731);
#729=SHAPE_REPRESENTATION('',(#454),#721);
#730=PRODUCT_DEFINITION_CONTEXT('part definition',#735,'design');
#731=PRODUCT_DEFINITION('Part5','Part5',#732,#730);
#732=PRODUCT_DEFINITION_FORMATION('',$,#737);
#733=PRODUCT_RELATED_PRODUCT_CATEGORY('Part5','Part5',(#737));
#734=APPLICATION_PROTOCOL_DEFINITION('international standard',
'automotive_design',2009,#735);
#735=APPLICATION_CONTEXT(
'Core Data for Automotive Mechanical Design Process');
#736=PRODUCT_CONTEXT('part definition',#735,'mechanical');
#737=PRODUCT('Part5','Part5',$,(#736));
#738=PRESENTATION_STYLE_ASSIGNMENT((#740));
#739=PRESENTATION_STYLE_ASSIGNMENT((#741));
#740=SURFACE_STYLE_USAGE(.BOTH.,#744);
#741=SURFACE_STYLE_USAGE(.BOTH.,#745);
#742=SURFACE_STYLE_RENDERING_WITH_PROPERTIES($,#752,(#743));
#743=SURFACE_STYLE_TRANSPARENT(0.);
#744=SURFACE_SIDE_STYLE('',(#746,#742));
#745=SURFACE_SIDE_STYLE('',(#747));
#746=SURFACE_STYLE_FILL_AREA(#748);
#747=SURFACE_STYLE_FILL_AREA(#749);
#748=FILL_AREA_STYLE('',(#750));
#749=FILL_AREA_STYLE('',(#751));
#750=FILL_AREA_STYLE_COLOUR('',#752);
#751=FILL_AREA_STYLE_COLOUR('',#753);
#752=COLOUR_RGB('',0.749019607843137,0.749019607843137,0.749019607843137);
#753=COLOUR_RGB('',0.913725490196078,0.913725490196078,0.);
ENDSEC;
END-ISO-10303-21;
