ISO-10303-21;
HEADER;
/* Generated by software containing ST-Developer
 * from STEP Tools, Inc. (www.steptools.com) 
 */

FILE_DESCRIPTION(
/* description */ (''),
/* implementation_level */ '2;1');

FILE_NAME(
/* name */ '',
/* time_stamp */ '2026-04-26T00:01:08+03:00',
/* author */ ('Hp'),
/* organization */ (''),
/* preprocessor_version */ 'ST-DEVELOPER v20.1',
/* originating_system */ 'Autodesk Inventor 2027',
/* authorisation */ '');

FILE_SCHEMA (('AUTOMOTIVE_DESIGN { 1 0 10303 214 3 1 1 }'));
ENDSEC;

DATA;
#10=MECHANICAL_DESIGN_GEOMETRIC_PRESENTATION_REPRESENTATION('',(#13,#14),
#343);
#11=SHAPE_REPRESENTATION_RELATIONSHIP('SRR','None',#350,#12);
#12=ADVANCED_BREP_SHAPE_REPRESENTATION('',(#15,#16),#342);
#13=STYLED_ITEM('',(#359),#15);
#14=STYLED_ITEM('',(#359),#16);
#15=MANIFOLD_SOLID_BREP('Solid1',#201);
#16=MANIFOLD_SOLID_BREP('Solid1',#202);
#17=FACE_OUTER_BOUND('',#29,.T.);
#18=FACE_OUTER_BOUND('',#30,.T.);
#19=FACE_OUTER_BOUND('',#31,.T.);
#20=FACE_OUTER_BOUND('',#32,.T.);
#21=FACE_OUTER_BOUND('',#33,.T.);
#22=FACE_OUTER_BOUND('',#34,.T.);
#23=FACE_OUTER_BOUND('',#35,.T.);
#24=FACE_OUTER_BOUND('',#36,.T.);
#25=FACE_OUTER_BOUND('',#37,.T.);
#26=FACE_OUTER_BOUND('',#38,.T.);
#27=FACE_OUTER_BOUND('',#39,.T.);
#28=FACE_OUTER_BOUND('',#40,.T.);
#29=EDGE_LOOP('',(#129,#130,#131,#132));
#30=EDGE_LOOP('',(#133,#134,#135,#136));
#31=EDGE_LOOP('',(#137,#138,#139,#140));
#32=EDGE_LOOP('',(#141,#142,#143,#144));
#33=EDGE_LOOP('',(#145,#146,#147,#148));
#34=EDGE_LOOP('',(#149,#150,#151,#152));
#35=EDGE_LOOP('',(#153,#154,#155,#156));
#36=EDGE_LOOP('',(#157,#158,#159,#160));
#37=EDGE_LOOP('',(#161,#162,#163,#164));
#38=EDGE_LOOP('',(#165,#166,#167,#168));
#39=EDGE_LOOP('',(#169,#170,#171,#172));
#40=EDGE_LOOP('',(#173,#174,#175,#176));
#41=LINE('',#291,#65);
#42=LINE('',#293,#66);
#43=LINE('',#295,#67);
#44=LINE('',#296,#68);
#45=LINE('',#299,#69);
#46=LINE('',#301,#70);
#47=LINE('',#302,#71);
#48=LINE('',#305,#72);
#49=LINE('',#306,#73);
#50=LINE('',#309,#74);
#51=LINE('',#310,#75);
#52=LINE('',#312,#76);
#53=LINE('',#317,#77);
#54=LINE('',#319,#78);
#55=LINE('',#321,#79);
#56=LINE('',#322,#80);
#57=LINE('',#326,#81);
#58=LINE('',#327,#82);
#59=LINE('',#328,#83);
#60=LINE('',#331,#84);
#61=LINE('',#332,#85);
#62=LINE('',#335,#86);
#63=LINE('',#336,#87);
#64=LINE('',#338,#88);
#65=VECTOR('',#241,10.);
#66=VECTOR('',#242,10.);
#67=VECTOR('',#243,10.);
#68=VECTOR('',#244,10.);
#69=VECTOR('',#247,10.);
#70=VECTOR('',#248,10.);
#71=VECTOR('',#249,10.);
#72=VECTOR('',#252,10.);
#73=VECTOR('',#253,10.);
#74=VECTOR('',#256,10.);
#75=VECTOR('',#257,10.);
#76=VECTOR('',#260,10.);
#77=VECTOR('',#265,10.);
#78=VECTOR('',#266,10.);
#79=VECTOR('',#267,10.);
#80=VECTOR('',#268,10.);
#81=VECTOR('',#271,10.);
#82=VECTOR('',#272,10.);
#83=VECTOR('',#273,10.);
#84=VECTOR('',#276,10.);
#85=VECTOR('',#277,10.);
#86=VECTOR('',#280,10.);
#87=VECTOR('',#281,10.);
#88=VECTOR('',#284,10.);
#89=VERTEX_POINT('',#289);
#90=VERTEX_POINT('',#290);
#91=VERTEX_POINT('',#292);
#92=VERTEX_POINT('',#294);
#93=VERTEX_POINT('',#298);
#94=VERTEX_POINT('',#300);
#95=VERTEX_POINT('',#304);
#96=VERTEX_POINT('',#308);
#97=VERTEX_POINT('',#315);
#98=VERTEX_POINT('',#316);
#99=VERTEX_POINT('',#318);
#100=VERTEX_POINT('',#320);
#101=VERTEX_POINT('',#324);
#102=VERTEX_POINT('',#325);
#103=VERTEX_POINT('',#330);
#104=VERTEX_POINT('',#334);
#105=EDGE_CURVE('',#89,#90,#41,.T.);
#106=EDGE_CURVE('',#91,#89,#42,.T.);
#107=EDGE_CURVE('',#92,#91,#43,.T.);
#108=EDGE_CURVE('',#90,#92,#44,.T.);
#109=EDGE_CURVE('',#93,#91,#45,.T.);
#110=EDGE_CURVE('',#94,#93,#46,.T.);
#111=EDGE_CURVE('',#92,#94,#47,.T.);
#112=EDGE_CURVE('',#94,#95,#48,.T.);
#113=EDGE_CURVE('',#90,#95,#49,.T.);
#114=EDGE_CURVE('',#96,#89,#50,.T.);
#115=EDGE_CURVE('',#93,#96,#51,.T.);
#116=EDGE_CURVE('',#95,#96,#52,.T.);
#117=EDGE_CURVE('',#97,#98,#53,.T.);
#118=EDGE_CURVE('',#98,#99,#54,.T.);
#119=EDGE_CURVE('',#100,#99,#55,.T.);
#120=EDGE_CURVE('',#97,#100,#56,.T.);
#121=EDGE_CURVE('',#101,#102,#57,.T.);
#122=EDGE_CURVE('',#99,#102,#58,.T.);
#123=EDGE_CURVE('',#98,#101,#59,.T.);
#124=EDGE_CURVE('',#103,#101,#60,.T.);
#125=EDGE_CURVE('',#103,#97,#61,.T.);
#126=EDGE_CURVE('',#104,#103,#62,.T.);
#127=EDGE_CURVE('',#104,#100,#63,.T.);
#128=EDGE_CURVE('',#102,#104,#64,.T.);
#129=ORIENTED_EDGE('',*,*,#105,.F.);
#130=ORIENTED_EDGE('',*,*,#106,.F.);
#131=ORIENTED_EDGE('',*,*,#107,.F.);
#132=ORIENTED_EDGE('',*,*,#108,.F.);
#133=ORIENTED_EDGE('',*,*,#107,.T.);
#134=ORIENTED_EDGE('',*,*,#109,.F.);
#135=ORIENTED_EDGE('',*,*,#110,.F.);
#136=ORIENTED_EDGE('',*,*,#111,.F.);
#137=ORIENTED_EDGE('',*,*,#108,.T.);
#138=ORIENTED_EDGE('',*,*,#111,.T.);
#139=ORIENTED_EDGE('',*,*,#112,.T.);
#140=ORIENTED_EDGE('',*,*,#113,.F.);
#141=ORIENTED_EDGE('',*,*,#106,.T.);
#142=ORIENTED_EDGE('',*,*,#114,.F.);
#143=ORIENTED_EDGE('',*,*,#115,.F.);
#144=ORIENTED_EDGE('',*,*,#109,.T.);
#145=ORIENTED_EDGE('',*,*,#110,.T.);
#146=ORIENTED_EDGE('',*,*,#115,.T.);
#147=ORIENTED_EDGE('',*,*,#116,.F.);
#148=ORIENTED_EDGE('',*,*,#112,.F.);
#149=ORIENTED_EDGE('',*,*,#105,.T.);
#150=ORIENTED_EDGE('',*,*,#113,.T.);
#151=ORIENTED_EDGE('',*,*,#116,.T.);
#152=ORIENTED_EDGE('',*,*,#114,.T.);
#153=ORIENTED_EDGE('',*,*,#117,.T.);
#154=ORIENTED_EDGE('',*,*,#118,.T.);
#155=ORIENTED_EDGE('',*,*,#119,.F.);
#156=ORIENTED_EDGE('',*,*,#120,.F.);
#157=ORIENTED_EDGE('',*,*,#121,.T.);
#158=ORIENTED_EDGE('',*,*,#122,.F.);
#159=ORIENTED_EDGE('',*,*,#118,.F.);
#160=ORIENTED_EDGE('',*,*,#123,.T.);
#161=ORIENTED_EDGE('',*,*,#124,.T.);
#162=ORIENTED_EDGE('',*,*,#123,.F.);
#163=ORIENTED_EDGE('',*,*,#117,.F.);
#164=ORIENTED_EDGE('',*,*,#125,.F.);
#165=ORIENTED_EDGE('',*,*,#126,.T.);
#166=ORIENTED_EDGE('',*,*,#125,.T.);
#167=ORIENTED_EDGE('',*,*,#120,.T.);
#168=ORIENTED_EDGE('',*,*,#127,.F.);
#169=ORIENTED_EDGE('',*,*,#128,.T.);
#170=ORIENTED_EDGE('',*,*,#127,.T.);
#171=ORIENTED_EDGE('',*,*,#119,.T.);
#172=ORIENTED_EDGE('',*,*,#122,.T.);
#173=ORIENTED_EDGE('',*,*,#128,.F.);
#174=ORIENTED_EDGE('',*,*,#121,.F.);
#175=ORIENTED_EDGE('',*,*,#124,.F.);
#176=ORIENTED_EDGE('',*,*,#126,.F.);
#177=PLANE('',#225);
#178=PLANE('',#226);
#179=PLANE('',#227);
#180=PLANE('',#228);
#181=PLANE('',#229);
#182=PLANE('',#230);
#183=PLANE('',#231);
#184=PLANE('',#232);
#185=PLANE('',#233);
#186=PLANE('',#234);
#187=PLANE('',#235);
#188=PLANE('',#236);
#189=ADVANCED_FACE('',(#17),#177,.T.);
#190=ADVANCED_FACE('',(#18),#178,.F.);
#191=ADVANCED_FACE('',(#19),#179,.T.);
#192=ADVANCED_FACE('',(#20),#180,.T.);
#193=ADVANCED_FACE('',(#21),#181,.T.);
#194=ADVANCED_FACE('',(#22),#182,.T.);
#195=ADVANCED_FACE('',(#23),#183,.T.);
#196=ADVANCED_FACE('',(#24),#184,.T.);
#197=ADVANCED_FACE('',(#25),#185,.F.);
#198=ADVANCED_FACE('',(#26),#186,.T.);
#199=ADVANCED_FACE('',(#27),#187,.T.);
#200=ADVANCED_FACE('',(#28),#188,.T.);
#201=CLOSED_SHELL('',(#189,#190,#191,#192,#193,#194));
#202=CLOSED_SHELL('',(#195,#196,#197,#198,#199,#200));
#203=DERIVED_UNIT_ELEMENT(#206,1.);
#204=DERIVED_UNIT_ELEMENT(#345,-3.);
#205=DIMENSIONAL_EXPONENTS(0.,1.,0.,0.,0.,0.,0.);
#206=(
CONVERSION_BASED_UNIT('gram',#208)
MASS_UNIT()
NAMED_UNIT(#205)
);
#207=(
MASS_UNIT()
NAMED_UNIT(*)
SI_UNIT(.KILO.,.GRAM.)
);
#208=MASS_MEASURE_WITH_UNIT(MASS_MEASURE(0.001),#207);
#209=DERIVED_UNIT((#203,#204));
#210=MEASURE_REPRESENTATION_ITEM('density measure',
POSITIVE_RATIO_MEASURE(1.),#209);
#211=PROPERTY_DEFINITION_REPRESENTATION(#216,#213);
#212=PROPERTY_DEFINITION_REPRESENTATION(#217,#214);
#213=REPRESENTATION('material name',(#215),#342);
#214=REPRESENTATION('density',(#210),#342);
#215=DESCRIPTIVE_REPRESENTATION_ITEM('Generic','Generic');
#216=PROPERTY_DEFINITION('material property','material name',#352);
#217=PROPERTY_DEFINITION('material property','density of part',#352);
#218=DATE_TIME_ROLE('creation_date');
#219=APPLIED_DATE_AND_TIME_ASSIGNMENT(#220,#218,(#352));
#220=DATE_AND_TIME(#221,#222);
#221=CALENDAR_DATE(2026,25,4);
#222=LOCAL_TIME(0,0,0.,#223);
#223=COORDINATED_UNIVERSAL_TIME_OFFSET(0,0,.BEHIND.);
#224=AXIS2_PLACEMENT_3D('',#287,#237,#238);
#225=AXIS2_PLACEMENT_3D('',#288,#239,#240);
#226=AXIS2_PLACEMENT_3D('',#297,#245,#246);
#227=AXIS2_PLACEMENT_3D('',#303,#250,#251);
#228=AXIS2_PLACEMENT_3D('',#307,#254,#255);
#229=AXIS2_PLACEMENT_3D('',#311,#258,#259);
#230=AXIS2_PLACEMENT_3D('',#313,#261,#262);
#231=AXIS2_PLACEMENT_3D('',#314,#263,#264);
#232=AXIS2_PLACEMENT_3D('',#323,#269,#270);
#233=AXIS2_PLACEMENT_3D('',#329,#274,#275);
#234=AXIS2_PLACEMENT_3D('',#333,#278,#279);
#235=AXIS2_PLACEMENT_3D('',#337,#282,#283);
#236=AXIS2_PLACEMENT_3D('',#339,#285,#286);
#237=DIRECTION('axis',(0.,0.,1.));
#238=DIRECTION('refdir',(1.,0.,0.));
#239=DIRECTION('center_axis',(-1.,-5.9211894646675E-17,2.22044604925031E-16));
#240=DIRECTION('ref_axis',(-5.9211894646675E-17,1.,0.));
#241=DIRECTION('',(5.9211894646675E-17,-1.,0.));
#242=DIRECTION('',(2.22044604925031E-16,1.31476817536835E-32,1.));
#243=DIRECTION('',(-5.9211894646675E-17,1.,0.));
#244=DIRECTION('',(-2.22044604925031E-16,0.,-1.));
#245=DIRECTION('center_axis',(0.,0.,1.));
#246=DIRECTION('ref_axis',(1.,0.,0.));
#247=DIRECTION('',(-1.,-5.9211894646675E-17,0.));
#248=DIRECTION('',(-2.368475785867E-16,1.,0.));
#249=DIRECTION('',(1.,0.,0.));
#250=DIRECTION('center_axis',(0.,-1.,0.));
#251=DIRECTION('ref_axis',(1.,0.,0.));
#252=DIRECTION('',(0.,0.,1.));
#253=DIRECTION('',(1.,0.,0.));
#254=DIRECTION('center_axis',(-5.9211894646675E-17,1.,0.));
#255=DIRECTION('ref_axis',(-1.,-5.9211894646675E-17,0.));
#256=DIRECTION('',(-1.,-5.9211894646675E-17,0.));
#257=DIRECTION('',(0.,0.,1.));
#258=DIRECTION('center_axis',(1.,2.368475785867E-16,0.));
#259=DIRECTION('ref_axis',(-2.368475785867E-16,1.,0.));
#260=DIRECTION('',(-2.368475785867E-16,1.,0.));
#261=DIRECTION('center_axis',(0.,0.,1.));
#262=DIRECTION('ref_axis',(1.,0.,0.));
#263=DIRECTION('center_axis',(-1.,-2.368475785867E-16,0.));
#264=DIRECTION('ref_axis',(2.368475785867E-16,-1.,0.));
#265=DIRECTION('',(2.368475785867E-16,-1.,0.));
#266=DIRECTION('',(0.,0.,1.));
#267=DIRECTION('',(2.368475785867E-16,-1.,0.));
#268=DIRECTION('',(0.,0.,1.));
#269=DIRECTION('center_axis',(0.,-1.,0.));
#270=DIRECTION('ref_axis',(1.,0.,0.));
#271=DIRECTION('',(2.22044604925031E-16,0.,1.));
#272=DIRECTION('',(1.,0.,0.));
#273=DIRECTION('',(1.,0.,0.));
#274=DIRECTION('center_axis',(0.,0.,1.));
#275=DIRECTION('ref_axis',(1.,0.,0.));
#276=DIRECTION('',(5.9211894646675E-17,-1.,0.));
#277=DIRECTION('',(-1.,-5.9211894646675E-17,0.));
#278=DIRECTION('center_axis',(-5.9211894646675E-17,1.,0.));
#279=DIRECTION('ref_axis',(-1.,-5.9211894646675E-17,0.));
#280=DIRECTION('',(-2.22044604925031E-16,-1.31476817536835E-32,-1.));
#281=DIRECTION('',(-1.,-5.9211894646675E-17,0.));
#282=DIRECTION('center_axis',(0.,0.,1.));
#283=DIRECTION('ref_axis',(1.,0.,0.));
#284=DIRECTION('',(-5.9211894646675E-17,1.,0.));
#285=DIRECTION('center_axis',(1.,5.9211894646675E-17,-2.22044604925031E-16));
#286=DIRECTION('ref_axis',(5.9211894646675E-17,-1.,0.));
#287=CARTESIAN_POINT('',(0.,0.,0.));
#288=CARTESIAN_POINT('Origin',(-17.4016271914468,-823.580032186725,412.780316691437));
#289=CARTESIAN_POINT('',(-17.4016271914468,76.4199678132755,300.));
#290=CARTESIAN_POINT('',(-17.4016271914468,-73.5800321867245,300.));
#291=CARTESIAN_POINT('',(-17.4016271914468,-411.080032186725,300.));
#292=CARTESIAN_POINT('',(-17.4016271914469,76.4199678132755,0.));
#293=CARTESIAN_POINT('',(-17.4016271914469,76.4199678132756,206.390158345718));
#294=CARTESIAN_POINT('',(-17.4016271914469,-73.5800321867245,0.));
#295=CARTESIAN_POINT('',(-17.4016271914469,-411.080032186725,0.));
#296=CARTESIAN_POINT('',(-17.4016271914469,-73.5800321867244,206.390158345718));
#297=CARTESIAN_POINT('Origin',(-15.8905092705433,1.41996781327554,0.));
#298=CARTESIAN_POINT('',(134.109490729457,76.4199678132755,0.));
#299=CARTESIAN_POINT('',(134.109490729457,76.4199678132755,0.));
#300=CARTESIAN_POINT('',(134.109490729457,-73.5800321867245,0.));
#301=CARTESIAN_POINT('',(134.109490729457,-73.5800321867245,0.));
#302=CARTESIAN_POINT('',(-165.890509270543,-73.5800321867245,0.));
#303=CARTESIAN_POINT('Origin',(-165.890509270543,-73.5800321867245,0.));
#304=CARTESIAN_POINT('',(134.109490729457,-73.5800321867245,300.));
#305=CARTESIAN_POINT('',(134.109490729457,-73.5800321867245,0.));
#306=CARTESIAN_POINT('',(-165.890509270543,-73.5800321867245,300.));
#307=CARTESIAN_POINT('Origin',(134.109490729457,76.4199678132755,0.));
#308=CARTESIAN_POINT('',(134.109490729457,76.4199678132755,300.));
#309=CARTESIAN_POINT('',(134.109490729457,76.4199678132755,300.));
#310=CARTESIAN_POINT('',(134.109490729457,76.4199678132755,0.));
#311=CARTESIAN_POINT('Origin',(134.109490729457,-73.5800321867245,0.));
#312=CARTESIAN_POINT('',(134.109490729457,-73.5800321867245,300.));
#313=CARTESIAN_POINT('Origin',(-15.8905092705433,1.41996781327554,300.));
#314=CARTESIAN_POINT('Origin',(-165.890509270543,76.4199678132755,0.));
#315=CARTESIAN_POINT('',(-165.890509270543,76.4199678132755,0.));
#316=CARTESIAN_POINT('',(-165.890509270543,-73.5800321867245,0.));
#317=CARTESIAN_POINT('',(-165.890509270543,76.4199678132755,0.));
#318=CARTESIAN_POINT('',(-165.890509270543,-73.5800321867245,300.));
#319=CARTESIAN_POINT('',(-165.890509270543,-73.5800321867245,0.));
#320=CARTESIAN_POINT('',(-165.890509270543,76.4199678132755,300.));
#321=CARTESIAN_POINT('',(-165.890509270543,76.4199678132755,300.));
#322=CARTESIAN_POINT('',(-165.890509270543,76.4199678132755,0.));
#323=CARTESIAN_POINT('Origin',(-165.890509270543,-73.5800321867245,0.));
#324=CARTESIAN_POINT('',(-37.4016271914469,-73.5800321867245,0.));
#325=CARTESIAN_POINT('',(-37.4016271914468,-73.5800321867245,300.));
#326=CARTESIAN_POINT('',(-37.4016271914469,-73.5800321867245,206.390158345718));
#327=CARTESIAN_POINT('',(-165.890509270543,-73.5800321867245,300.));
#328=CARTESIAN_POINT('',(-165.890509270543,-73.5800321867245,0.));
#329=CARTESIAN_POINT('Origin',(-15.8905092705433,1.41996781327554,0.));
#330=CARTESIAN_POINT('',(-37.4016271914469,76.4199678132755,0.));
#331=CARTESIAN_POINT('',(-37.4016271914469,38.9199678132755,0.));
#332=CARTESIAN_POINT('',(134.109490729457,76.4199678132755,0.));
#333=CARTESIAN_POINT('Origin',(134.109490729457,76.4199678132755,0.));
#334=CARTESIAN_POINT('',(-37.4016271914468,76.4199678132755,300.));
#335=CARTESIAN_POINT('',(-37.4016271914469,76.4199678132755,206.390158345718));
#336=CARTESIAN_POINT('',(134.109490729457,76.4199678132755,300.));
#337=CARTESIAN_POINT('Origin',(-15.8905092705433,1.41996781327554,300.));
#338=CARTESIAN_POINT('',(-37.4016271914469,38.9199678132755,300.));
#339=CARTESIAN_POINT('Origin',(-37.4016271914468,76.4199678132755,412.780316691437));
#340=UNCERTAINTY_MEASURE_WITH_UNIT(LENGTH_MEASURE(0.01),#344,
'DISTANCE_ACCURACY_VALUE',
'Maximum model space distance between geometric entities at asserted c
onnectivities');
#341=UNCERTAINTY_MEASURE_WITH_UNIT(LENGTH_MEASURE(0.01),#344,
'DISTANCE_ACCURACY_VALUE',
'Maximum model space distance between geometric entities at asserted c
onnectivities');
#342=(
GEOMETRIC_REPRESENTATION_CONTEXT(3)
GLOBAL_UNCERTAINTY_ASSIGNED_CONTEXT((#340))
GLOBAL_UNIT_ASSIGNED_CONTEXT((#344,#346,#347))
REPRESENTATION_CONTEXT('','3D')
);
#343=(
GEOMETRIC_REPRESENTATION_CONTEXT(3)
GLOBAL_UNCERTAINTY_ASSIGNED_CONTEXT((#341))
GLOBAL_UNIT_ASSIGNED_CONTEXT((#344,#346,#347))
REPRESENTATION_CONTEXT('','3D')
);
#344=(
LENGTH_UNIT()
NAMED_UNIT(*)
SI_UNIT(.MILLI.,.METRE.)
);
#345=(
LENGTH_UNIT()
NAMED_UNIT(*)
SI_UNIT(.CENTI.,.METRE.)
);
#346=(
NAMED_UNIT(*)
PLANE_ANGLE_UNIT()
SI_UNIT($,.RADIAN.)
);
#347=(
NAMED_UNIT(*)
SI_UNIT($,.STERADIAN.)
SOLID_ANGLE_UNIT()
);
#348=SHAPE_DEFINITION_REPRESENTATION(#349,#350);
#349=PRODUCT_DEFINITION_SHAPE('',$,#352);
#350=SHAPE_REPRESENTATION('',(#224),#342);
#351=PRODUCT_DEFINITION_CONTEXT('part definition',#356,'design');
#352=PRODUCT_DEFINITION('Part1','Part1',#353,#351);
#353=PRODUCT_DEFINITION_FORMATION('',$,#358);
#354=PRODUCT_RELATED_PRODUCT_CATEGORY('Part1','Part1',(#358));
#355=APPLICATION_PROTOCOL_DEFINITION('international standard',
'automotive_design',2009,#356);
#356=APPLICATION_CONTEXT(
'Core Data for Automotive Mechanical Design Process');
#357=PRODUCT_CONTEXT('part definition',#356,'mechanical');
#358=PRODUCT('Part1','Part1',$,(#357));
#359=PRESENTATION_STYLE_ASSIGNMENT((#360));
#360=SURFACE_STYLE_USAGE(.BOTH.,#363);
#361=SURFACE_STYLE_RENDERING_WITH_PROPERTIES($,#367,(#362));
#362=SURFACE_STYLE_TRANSPARENT(0.);
#363=SURFACE_SIDE_STYLE('',(#364,#361));
#364=SURFACE_STYLE_FILL_AREA(#365);
#365=FILL_AREA_STYLE('',(#366));
#366=FILL_AREA_STYLE_COLOUR('',#367);
#367=COLOUR_RGB('',0.749019607843137,0.749019607843137,0.749019607843137);
ENDSEC;
END-ISO-10303-21;
