ISO-10303-21;
HEADER;
/* Generated by software containing ST-Developer
 * from STEP Tools, Inc. (www.steptools.com) 
 */

FILE_DESCRIPTION(
/* description */ (''),
/* implementation_level */ '2;1');

FILE_NAME(
/* name */ '',
/* time_stamp */ '2026-04-25T23:59:08+03:00',
/* author */ ('Hp'),
/* organization */ (''),
/* preprocessor_version */ 'ST-DEVELOPER v20.1',
/* originating_system */ 'Autodesk Inventor 2027',
/* authorisation */ '');

FILE_SCHEMA (('AUTOMOTIVE_DESIGN { 1 0 10303 214 3 1 1 }'));
ENDSEC;

DATA;
#10=MECHANICAL_DESIGN_GEOMETRIC_PRESENTATION_REPRESENTATION('',(#13,#14),
#215);
#11=SHAPE_REPRESENTATION_RELATIONSHIP('SRR','None',#222,#12);
#12=ADVANCED_BREP_SHAPE_REPRESENTATION('',(#15,#16),#214);
#13=STYLED_ITEM('',(#231),#15);
#14=STYLED_ITEM('',(#231),#16);
#15=MANIFOLD_SOLID_BREP('Solid1',#113);
#16=MANIFOLD_SOLID_BREP('Solid1',#114);
#17=CYLINDRICAL_SURFACE('',#140,150.);
#18=CYLINDRICAL_SURFACE('',#145,150.);
#19=CIRCLE('',#139,150.);
#20=CIRCLE('',#141,150.);
#21=CIRCLE('',#144,150.);
#22=CIRCLE('',#146,150.);
#23=FACE_OUTER_BOUND('',#31,.T.);
#24=FACE_OUTER_BOUND('',#32,.T.);
#25=FACE_OUTER_BOUND('',#33,.T.);
#26=FACE_OUTER_BOUND('',#34,.T.);
#27=FACE_OUTER_BOUND('',#35,.T.);
#28=FACE_OUTER_BOUND('',#36,.T.);
#29=FACE_OUTER_BOUND('',#37,.T.);
#30=FACE_OUTER_BOUND('',#38,.T.);
#31=EDGE_LOOP('',(#75,#76,#77,#78));
#32=EDGE_LOOP('',(#79,#80));
#33=EDGE_LOOP('',(#81,#82,#83,#84));
#34=EDGE_LOOP('',(#85,#86));
#35=EDGE_LOOP('',(#87,#88));
#36=EDGE_LOOP('',(#89,#90,#91,#92));
#37=EDGE_LOOP('',(#93,#94));
#38=EDGE_LOOP('',(#95,#96,#97,#98));
#39=LINE('',#187,#47);
#40=LINE('',#189,#48);
#41=LINE('',#191,#49);
#42=LINE('',#192,#50);
#43=LINE('',#201,#51);
#44=LINE('',#205,#52);
#45=LINE('',#208,#53);
#46=LINE('',#210,#54);
#47=VECTOR('',#153,10.);
#48=VECTOR('',#154,10.);
#49=VECTOR('',#155,10.);
#50=VECTOR('',#156,10.);
#51=VECTOR('',#169,10.);
#52=VECTOR('',#174,10.);
#53=VECTOR('',#177,10.);
#54=VECTOR('',#180,10.);
#55=VERTEX_POINT('',#185);
#56=VERTEX_POINT('',#186);
#57=VERTEX_POINT('',#188);
#58=VERTEX_POINT('',#190);
#59=VERTEX_POINT('',#199);
#60=VERTEX_POINT('',#200);
#61=VERTEX_POINT('',#204);
#62=VERTEX_POINT('',#206);
#63=EDGE_CURVE('',#55,#56,#39,.T.);
#64=EDGE_CURVE('',#57,#55,#40,.T.);
#65=EDGE_CURVE('',#58,#57,#41,.T.);
#66=EDGE_CURVE('',#56,#58,#42,.T.);
#67=EDGE_CURVE('',#56,#58,#19,.T.);
#68=EDGE_CURVE('',#55,#57,#20,.T.);
#69=EDGE_CURVE('',#59,#60,#43,.T.);
#70=EDGE_CURVE('',#59,#60,#21,.T.);
#71=EDGE_CURVE('',#60,#61,#44,.T.);
#72=EDGE_CURVE('',#62,#61,#22,.T.);
#73=EDGE_CURVE('',#62,#59,#45,.T.);
#74=EDGE_CURVE('',#61,#62,#46,.T.);
#75=ORIENTED_EDGE('',*,*,#63,.F.);
#76=ORIENTED_EDGE('',*,*,#64,.F.);
#77=ORIENTED_EDGE('',*,*,#65,.F.);
#78=ORIENTED_EDGE('',*,*,#66,.F.);
#79=ORIENTED_EDGE('',*,*,#66,.T.);
#80=ORIENTED_EDGE('',*,*,#67,.F.);
#81=ORIENTED_EDGE('',*,*,#63,.T.);
#82=ORIENTED_EDGE('',*,*,#67,.T.);
#83=ORIENTED_EDGE('',*,*,#65,.T.);
#84=ORIENTED_EDGE('',*,*,#68,.F.);
#85=ORIENTED_EDGE('',*,*,#64,.T.);
#86=ORIENTED_EDGE('',*,*,#68,.T.);
#87=ORIENTED_EDGE('',*,*,#69,.T.);
#88=ORIENTED_EDGE('',*,*,#70,.F.);
#89=ORIENTED_EDGE('',*,*,#71,.T.);
#90=ORIENTED_EDGE('',*,*,#72,.F.);
#91=ORIENTED_EDGE('',*,*,#73,.T.);
#92=ORIENTED_EDGE('',*,*,#70,.T.);
#93=ORIENTED_EDGE('',*,*,#74,.T.);
#94=ORIENTED_EDGE('',*,*,#72,.T.);
#95=ORIENTED_EDGE('',*,*,#71,.F.);
#96=ORIENTED_EDGE('',*,*,#69,.F.);
#97=ORIENTED_EDGE('',*,*,#73,.F.);
#98=ORIENTED_EDGE('',*,*,#74,.F.);
#99=PLANE('',#137);
#100=PLANE('',#138);
#101=PLANE('',#142);
#102=PLANE('',#143);
#103=PLANE('',#147);
#104=PLANE('',#148);
#105=ADVANCED_FACE('',(#23),#99,.T.);
#106=ADVANCED_FACE('',(#24),#100,.T.);
#107=ADVANCED_FACE('',(#25),#17,.T.);
#108=ADVANCED_FACE('',(#26),#101,.T.);
#109=ADVANCED_FACE('',(#27),#102,.T.);
#110=ADVANCED_FACE('',(#28),#18,.T.);
#111=ADVANCED_FACE('',(#29),#103,.T.);
#112=ADVANCED_FACE('',(#30),#104,.T.);
#113=CLOSED_SHELL('',(#105,#106,#107,#108));
#114=CLOSED_SHELL('',(#109,#110,#111,#112));
#115=DERIVED_UNIT_ELEMENT(#118,1.);
#116=DERIVED_UNIT_ELEMENT(#217,-3.);
#117=DIMENSIONAL_EXPONENTS(0.,1.,0.,0.,0.,0.,0.);
#118=(
CONVERSION_BASED_UNIT('gram',#120)
MASS_UNIT()
NAMED_UNIT(#117)
);
#119=(
MASS_UNIT()
NAMED_UNIT(*)
SI_UNIT(.KILO.,.GRAM.)
);
#120=MASS_MEASURE_WITH_UNIT(MASS_MEASURE(0.001),#119);
#121=DERIVED_UNIT((#115,#116));
#122=MEASURE_REPRESENTATION_ITEM('density measure',
POSITIVE_RATIO_MEASURE(1.),#121);
#123=PROPERTY_DEFINITION_REPRESENTATION(#128,#125);
#124=PROPERTY_DEFINITION_REPRESENTATION(#129,#126);
#125=REPRESENTATION('material name',(#127),#214);
#126=REPRESENTATION('density',(#122),#214);
#127=DESCRIPTIVE_REPRESENTATION_ITEM('Generic','Generic');
#128=PROPERTY_DEFINITION('material property','material name',#224);
#129=PROPERTY_DEFINITION('material property','density of part',#224);
#130=DATE_TIME_ROLE('creation_date');
#131=APPLIED_DATE_AND_TIME_ASSIGNMENT(#132,#130,(#224));
#132=DATE_AND_TIME(#133,#134);
#133=CALENDAR_DATE(2026,25,4);
#134=LOCAL_TIME(0,0,0.,#135);
#135=COORDINATED_UNIVERSAL_TIME_OFFSET(0,0,.BEHIND.);
#136=AXIS2_PLACEMENT_3D('',#183,#149,#150);
#137=AXIS2_PLACEMENT_3D('',#184,#151,#152);
#138=AXIS2_PLACEMENT_3D('',#193,#157,#158);
#139=AXIS2_PLACEMENT_3D('',#194,#159,#160);
#140=AXIS2_PLACEMENT_3D('',#195,#161,#162);
#141=AXIS2_PLACEMENT_3D('',#196,#163,#164);
#142=AXIS2_PLACEMENT_3D('',#197,#165,#166);
#143=AXIS2_PLACEMENT_3D('',#198,#167,#168);
#144=AXIS2_PLACEMENT_3D('',#202,#170,#171);
#145=AXIS2_PLACEMENT_3D('',#203,#172,#173);
#146=AXIS2_PLACEMENT_3D('',#207,#175,#176);
#147=AXIS2_PLACEMENT_3D('',#209,#178,#179);
#148=AXIS2_PLACEMENT_3D('',#211,#181,#182);
#149=DIRECTION('axis',(0.,0.,1.));
#150=DIRECTION('refdir',(1.,0.,0.));
#151=DIRECTION('center_axis',(0.,-2.22044604925031E-16,1.));
#152=DIRECTION('ref_axis',(1.,0.,0.));
#153=DIRECTION('',(-1.,0.,0.));
#154=DIRECTION('',(0.,-1.,-2.22044604925031E-16));
#155=DIRECTION('',(1.,0.,0.));
#156=DIRECTION('',(0.,1.,2.22044604925031E-16));
#157=DIRECTION('center_axis',(-1.,0.,0.));
#158=DIRECTION('ref_axis',(0.,0.,1.));
#159=DIRECTION('center_axis',(1.,0.,0.));
#160=DIRECTION('ref_axis',(0.,0.,-1.));
#161=DIRECTION('center_axis',(1.,0.,0.));
#162=DIRECTION('ref_axis',(0.,-1.83697019872103E-16,-1.));
#163=DIRECTION('center_axis',(1.,0.,0.));
#164=DIRECTION('ref_axis',(0.,0.,-1.));
#165=DIRECTION('center_axis',(1.,0.,0.));
#166=DIRECTION('ref_axis',(0.,0.,-1.));
#167=DIRECTION('center_axis',(-1.,0.,0.));
#168=DIRECTION('ref_axis',(0.,0.,1.));
#169=DIRECTION('',(0.,-1.,-2.22044604925031E-16));
#170=DIRECTION('center_axis',(1.,0.,0.));
#171=DIRECTION('ref_axis',(0.,0.,-1.));
#172=DIRECTION('center_axis',(1.,0.,0.));
#173=DIRECTION('ref_axis',(0.,1.,0.));
#174=DIRECTION('',(1.,0.,0.));
#175=DIRECTION('center_axis',(1.,0.,0.));
#176=DIRECTION('ref_axis',(0.,0.,-1.));
#177=DIRECTION('',(-1.,0.,0.));
#178=DIRECTION('center_axis',(1.,0.,0.));
#179=DIRECTION('ref_axis',(0.,0.,-1.));
#180=DIRECTION('',(0.,1.,2.22044604925031E-16));
#181=DIRECTION('center_axis',(0.,2.22044604925031E-16,-1.));
#182=DIRECTION('ref_axis',(-1.,0.,0.));
#183=CARTESIAN_POINT('',(0.,0.,0.));
#184=CARTESIAN_POINT('Origin',(-905.12099381187,-249.574195902411,29.0957559139792));
#185=CARTESIAN_POINT('',(134.109490729457,-220.731100778815,29.0957559139792));
#186=CARTESIAN_POINT('',(-165.890509270543,-220.731100778815,29.0957559139792));
#187=CARTESIAN_POINT('',(-15.8905092705433,-220.731100778815,29.0957559139792));
#188=CARTESIAN_POINT('',(134.109490729457,73.5710364053661,29.0957559139792));
#189=CARTESIAN_POINT('',(134.109490729457,-161.577114044568,29.0957559139792));
#190=CARTESIAN_POINT('',(-165.890509270543,73.5710364053661,29.0957559139792));
#191=CARTESIAN_POINT('',(-15.8905092705433,73.5710364053661,29.0957559139792));
#192=CARTESIAN_POINT('',(-165.890509270543,-86.5771140445677,29.0957559139792));
#193=CARTESIAN_POINT('Origin',(-165.890509270543,76.4199678132755,0.));
#194=CARTESIAN_POINT('Origin',(-165.890509270543,-73.5800321867245,0.));
#195=CARTESIAN_POINT('Origin',(-15.8905092705433,-73.5800321867245,0.));
#196=CARTESIAN_POINT('Origin',(134.109490729457,-73.5800321867245,0.));
#197=CARTESIAN_POINT('Origin',(134.109490729457,-73.5800321867245,0.));
#198=CARTESIAN_POINT('Origin',(-165.890509270543,76.4199678132755,0.));
#199=CARTESIAN_POINT('',(-165.890509270543,59.6876003901049,68.8457559139792));
#200=CARTESIAN_POINT('',(-165.890509270543,-206.847664763554,68.8457559139792));
#201=CARTESIAN_POINT('',(-165.890509270543,-86.5771140445677,68.8457559139792));
#202=CARTESIAN_POINT('Origin',(-165.890509270543,-73.5800321867245,0.));
#203=CARTESIAN_POINT('Origin',(-15.8905092705433,-73.5800321867245,0.));
#204=CARTESIAN_POINT('',(134.109490729457,-206.847664763554,68.8457559139792));
#205=CARTESIAN_POINT('',(-15.8905092705433,-206.847664763554,68.8457559139792));
#206=CARTESIAN_POINT('',(134.109490729457,59.6876003901049,68.8457559139792));
#207=CARTESIAN_POINT('Origin',(134.109490729457,-73.5800321867245,0.));
#208=CARTESIAN_POINT('',(-15.8905092705433,59.6876003901049,68.8457559139792));
#209=CARTESIAN_POINT('Origin',(134.109490729457,-73.5800321867245,0.));
#210=CARTESIAN_POINT('',(134.109490729457,-161.577114044568,68.8457559139792));
#211=CARTESIAN_POINT('Origin',(134.109490729457,-249.574195902411,68.8457559139792));
#212=UNCERTAINTY_MEASURE_WITH_UNIT(LENGTH_MEASURE(0.01),#216,
'DISTANCE_ACCURACY_VALUE',
'Maximum model space distance between geometric entities at asserted c
onnectivities');
#213=UNCERTAINTY_MEASURE_WITH_UNIT(LENGTH_MEASURE(0.01),#216,
'DISTANCE_ACCURACY_VALUE',
'Maximum model space distance between geometric entities at asserted c
onnectivities');
#214=(
GEOMETRIC_REPRESENTATION_CONTEXT(3)
GLOBAL_UNCERTAINTY_ASSIGNED_CONTEXT((#212))
GLOBAL_UNIT_ASSIGNED_CONTEXT((#216,#218,#219))
REPRESENTATION_CONTEXT('','3D')
);
#215=(
GEOMETRIC_REPRESENTATION_CONTEXT(3)
GLOBAL_UNCERTAINTY_ASSIGNED_CONTEXT((#213))
GLOBAL_UNIT_ASSIGNED_CONTEXT((#216,#218,#219))
REPRESENTATION_CONTEXT('','3D')
);
#216=(
LENGTH_UNIT()
NAMED_UNIT(*)
SI_UNIT(.MILLI.,.METRE.)
);
#217=(
LENGTH_UNIT()
NAMED_UNIT(*)
SI_UNIT(.CENTI.,.METRE.)
);
#218=(
NAMED_UNIT(*)
PLANE_ANGLE_UNIT()
SI_UNIT($,.RADIAN.)
);
#219=(
NAMED_UNIT(*)
SI_UNIT($,.STERADIAN.)
SOLID_ANGLE_UNIT()
);
#220=SHAPE_DEFINITION_REPRESENTATION(#221,#222);
#221=PRODUCT_DEFINITION_SHAPE('',$,#224);
#222=SHAPE_REPRESENTATION('',(#136),#214);
#223=PRODUCT_DEFINITION_CONTEXT('part definition',#228,'design');
#224=PRODUCT_DEFINITION('Part1','Part1',#225,#223);
#225=PRODUCT_DEFINITION_FORMATION('',$,#230);
#226=PRODUCT_RELATED_PRODUCT_CATEGORY('Part1','Part1',(#230));
#227=APPLICATION_PROTOCOL_DEFINITION('international standard',
'automotive_design',2009,#228);
#228=APPLICATION_CONTEXT(
'Core Data for Automotive Mechanical Design Process');
#229=PRODUCT_CONTEXT('part definition',#228,'mechanical');
#230=PRODUCT('Part1','Part1',$,(#229));
#231=PRESENTATION_STYLE_ASSIGNMENT((#232));
#232=SURFACE_STYLE_USAGE(.BOTH.,#235);
#233=SURFACE_STYLE_RENDERING_WITH_PROPERTIES($,#239,(#234));
#234=SURFACE_STYLE_TRANSPARENT(0.);
#235=SURFACE_SIDE_STYLE('',(#236,#233));
#236=SURFACE_STYLE_FILL_AREA(#237);
#237=FILL_AREA_STYLE('',(#238));
#238=FILL_AREA_STYLE_COLOUR('',#239);
#239=COLOUR_RGB('',0.749019607843137,0.749019607843137,0.749019607843137);
ENDSEC;
END-ISO-10303-21;
