<svg xmlns="http://www.w3.org/2000/svg" width="900" height="650" viewBox="0 0 900 650">
<rect width="100%" height="100%" fill="#ffffff"/>
<text x="28" y="38" font-family="Inter,Arial,sans-serif" font-size="22" font-weight="700" fill="#111827">12 flange to flange</text>
<polygon points="789.09,337.00 775.50,344.98 760.52,352.93 744.21,360.82 726.64,368.59 707.88,376.24 688.02,383.72 667.14,390.99 645.33,398.04 622.68,404.82 599.29,411.31 575.27,417.49 550.71,423.32 525.71,428.78 500.39,433.85 474.86,438.50 449.22,442.72 423.59,446.48 398.06,449.78 372.76,452.60 347.79,454.91 323.26,456.73 299.27,458.03 275.92,458.81 253.33,459.07 231.57,458.81 210.75,458.03 190.95,456.73 172.26,454.91 154.77,452.60 138.53,449.78 123.63,446.48 110.13,442.72 98.08,438.50 87.54,433.85 78.55,428.78 71.16,423.32 65.38,417.49 61.25,411.31 58.79,404.82 58.00,398.04 58.89,390.99 61.46,383.72 65.68,376.24 71.56,368.59 79.05,360.82 88.14,352.93 98.77,344.98 110.91,337.00 124.50,329.02 139.48,321.07 155.79,313.18 173.36,305.41 192.12,297.76 211.98,290.28 232.86,283.01 254.67,275.96 277.32,269.18 300.71,262.69 324.73,256.51 349.29,250.68 374.29,245.22 399.61,240.15 425.14,235.50 450.78,231.28 476.41,227.52 501.94,224.22 527.24,221.40 552.21,219.09 576.74,217.27 600.73,215.97 624.08,215.19 646.67,214.93 668.43,215.19 689.25,215.97 709.05,217.27 727.74,219.09 745.23,221.40 761.47,224.22 776.37,227.52 789.87,231.28 801.92,235.50 812.46,240.15 821.45,245.22 828.84,250.68 834.62,256.51 838.75,262.69 841.21,269.18 842.00,275.96 841.11,283.01 838.54,290.28 834.32,297.76 828.44,305.41 820.95,313.18 811.86,321.07 801.23,329.02" fill="none" stroke="#2563eb" stroke-width="2.4" opacity="1.0" stroke-linejoin="round"/>
<polygon points="789.09,404.82 775.50,412.80 760.52,420.75 744.21,428.63 726.64,436.41 707.88,444.06 688.02,451.53 667.14,458.81 645.33,465.86 622.68,472.64 599.29,479.13 575.27,485.31 550.71,491.14 525.71,496.60 500.39,501.67 474.86,506.32 449.22,510.54 423.59,514.30 398.06,517.60 372.76,520.41 347.79,522.73 323.26,524.55 299.27,525.85 275.92,526.63 253.33,526.89 231.57,526.63 210.75,525.85 190.95,524.55 172.26,522.73 154.77,520.41 138.53,517.60 123.63,514.30 110.13,510.54 98.08,506.32 87.54,501.67 78.55,496.60 71.16,491.14 65.38,485.31 61.25,479.13 58.79,472.64 58.00,465.86 58.89,458.81 61.46,451.53 65.68,444.06 71.56,436.41 79.05,428.63 88.14,420.75 98.77,412.80 110.91,404.82 124.50,396.83 139.48,388.88 155.79,381.00 173.36,373.22 192.12,365.58 211.98,358.10 232.86,350.83 254.67,343.78 277.32,337.00 300.71,330.50 324.73,324.33 349.29,318.50 374.29,313.04 399.61,307.97 425.14,303.32 450.78,299.10 476.41,295.33 501.94,292.04 527.24,289.22 552.21,286.90 576.74,285.09 600.73,283.79 624.08,283.01 646.67,282.75 668.43,283.01 689.25,283.79 709.05,285.09 727.74,286.90 745.23,289.22 761.47,292.04 776.37,295.33 789.87,299.10 801.92,303.32 812.46,307.97 821.45,313.04 828.84,318.50 834.62,324.33 838.75,330.50 841.21,337.00 842.00,343.78 841.11,350.83 838.54,358.10 834.32,365.58 828.44,373.22 820.95,381.00 811.86,388.88 801.23,396.83" fill="none" stroke="#2563eb" stroke-width="2.4" opacity="1.0" stroke-linejoin="round"/>
<line x1="789.09" y1="404.82" x2="789.09" y2="337.00" stroke="#2563eb" stroke-width="2.2" stroke-linecap="round"/>
<line x1="110.91" y1="404.82" x2="110.91" y2="337.00" stroke="#2563eb" stroke-width="2.2" stroke-linecap="round"/>
<polygon points="577.16,337.00 572.06,339.99 566.45,342.98 560.33,345.93 553.74,348.85 546.70,351.71 539.26,354.52 531.43,357.25 523.25,359.89 514.75,362.43 505.98,364.87 496.98,367.18 487.76,369.37 478.39,371.42 468.90,373.32 459.32,375.06 449.71,376.64 440.09,378.06 430.52,379.29 421.04,380.35 411.67,381.22 402.47,381.90 393.48,382.39 384.72,382.68 376.25,382.78 368.09,382.68 360.28,382.39 352.86,381.90 345.85,381.22 339.29,380.35 333.20,379.29 327.61,378.06 322.55,376.64 318.03,375.06 314.08,373.32 310.71,371.42 307.93,369.37 305.77,367.18 304.22,364.87 303.30,362.43 303.00,359.89 303.33,357.25 304.30,354.52 305.88,351.71 308.08,348.85 310.90,345.93 314.30,342.98 318.29,339.99 322.84,337.00 327.94,334.01 333.55,331.02 339.67,328.07 346.26,325.15 353.30,322.29 360.74,319.48 368.57,316.75 376.75,314.11 385.25,311.57 394.02,309.13 403.02,306.82 412.24,304.63 421.61,302.58 431.10,300.68 440.68,298.94 450.29,297.36 459.91,295.94 469.48,294.71 478.96,293.65 488.33,292.78 497.53,292.10 506.52,291.61 515.28,291.32 523.75,291.22 531.91,291.32 539.72,291.61 547.14,292.10 554.15,292.78 560.71,293.65 566.80,294.71 572.39,295.94 577.45,297.36 581.97,298.94 585.92,300.68 589.29,302.58 592.07,304.63 594.23,306.82 595.78,309.13 596.70,311.57 597.00,314.11 596.67,316.75 595.70,319.48 594.12,322.29 591.92,325.15 589.10,328.07 585.70,331.02 581.71,334.01" fill="none" stroke="#2563eb" stroke-width="2.4" opacity="1.0" stroke-linejoin="round"/>
<polygon points="789.09,269.18 775.50,277.17 760.52,285.12 744.21,293.00 726.64,300.78 707.88,308.42 688.02,315.90 667.14,323.17 645.33,330.22 622.68,337.00 599.29,343.50 575.27,349.67 550.71,355.50 525.71,360.96 500.39,366.03 474.86,370.68 449.22,374.90 423.59,378.67 398.06,381.96 372.76,384.78 347.79,387.10 323.26,388.91 299.27,390.21 275.92,390.99 253.33,391.25 231.57,390.99 210.75,390.21 190.95,388.91 172.26,387.10 154.77,384.78 138.53,381.96 123.63,378.67 110.13,374.90 98.08,370.68 87.54,366.03 78.55,360.96 71.16,355.50 65.38,349.67 61.25,343.50 58.79,337.00 58.00,330.22 58.89,323.17 61.46,315.90 65.68,308.42 71.56,300.78 79.05,293.00 88.14,285.12 98.77,277.17 110.91,269.18 124.50,261.20 139.48,253.25 155.79,245.37 173.36,237.59 192.12,229.94 211.98,222.47 232.86,215.19 254.67,208.14 277.32,201.36 300.71,194.87 324.73,188.69 349.29,182.86 374.29,177.40 399.61,172.33 425.14,167.68 450.78,163.46 476.41,159.70 501.94,156.40 527.24,153.59 552.21,151.27 576.74,149.45 600.73,148.15 624.08,147.37 646.67,147.11 668.43,147.37 689.25,148.15 709.05,149.45 727.74,151.27 745.23,153.59 761.47,156.40 776.37,159.70 789.87,163.46 801.92,167.68 812.46,172.33 821.45,177.40 828.84,182.86 834.62,188.69 838.75,194.87 841.21,201.36 842.00,208.14 841.11,215.19 838.54,222.47 834.32,229.94 828.44,237.59 820.95,245.37 811.86,253.25 801.23,261.20" fill="none" stroke="#dc2626" stroke-width="2.4" opacity="1.0" stroke-linejoin="round"/>
<polygon points="789.09,337.00 775.50,344.98 760.52,352.93 744.21,360.82 726.64,368.59 707.88,376.24 688.02,383.72 667.14,390.99 645.33,398.04 622.68,404.82 599.29,411.31 575.27,417.49 550.71,423.32 525.71,428.78 500.39,433.85 474.86,438.50 449.22,442.72 423.59,446.48 398.06,449.78 372.76,452.60 347.79,454.91 323.26,456.73 299.27,458.03 275.92,458.81 253.33,459.07 231.57,458.81 210.75,458.03 190.95,456.73 172.26,454.91 154.77,452.60 138.53,449.78 123.63,446.48 110.13,442.72 98.08,438.50 87.54,433.85 78.55,428.78 71.16,423.32 65.38,417.49 61.25,411.31 58.79,404.82 58.00,398.04 58.89,390.99 61.46,383.72 65.68,376.24 71.56,368.59 79.05,360.82 88.14,352.93 98.77,344.98 110.91,337.00 124.50,329.02 139.48,321.07 155.79,313.18 173.36,305.41 192.12,297.76 211.98,290.28 232.86,283.01 254.67,275.96 277.32,269.18 300.71,262.69 324.73,256.51 349.29,250.68 374.29,245.22 399.61,240.15 425.14,235.50 450.78,231.28 476.41,227.52 501.94,224.22 527.24,221.40 552.21,219.09 576.74,217.27 600.73,215.97 624.08,215.19 646.67,214.93 668.43,215.19 689.25,215.97 709.05,217.27 727.74,219.09 745.23,221.40 761.47,224.22 776.37,227.52 789.87,231.28 801.92,235.50 812.46,240.15 821.45,245.22 828.84,250.68 834.62,256.51 838.75,262.69 841.21,269.18 842.00,275.96 841.11,283.01 838.54,290.28 834.32,297.76 828.44,305.41 820.95,313.18 811.86,321.07 801.23,329.02" fill="none" stroke="#dc2626" stroke-width="2.4" opacity="1.0" stroke-linejoin="round"/>
<line x1="789.09" y1="337.00" x2="789.09" y2="269.18" stroke="#dc2626" stroke-width="2.2" stroke-linecap="round"/>
<line x1="110.91" y1="337.00" x2="110.91" y2="269.18" stroke="#dc2626" stroke-width="2.2" stroke-linecap="round"/>
<text x="28" y="622" font-family="Inter,Arial,sans-serif" font-size="14" fill="#64748b">schematic isometric SVG - bodies color coded</text>
</svg>