<svg xmlns="http://www.w3.org/2000/svg" width="900" height="650" viewBox="0 0 900 650">
<rect width="100%" height="100%" fill="#ffffff"/>
<text x="28" y="38" font-family="Inter,Arial,sans-serif" font-size="22" font-weight="700" fill="#111827">13 torus on plate</text>
<polygon points="345.80,227.01 842.00,227.01 554.20,405.64 58.00,405.64" fill="#dbeafe" stroke="#2563eb" stroke-width="2.2" opacity="0.78" stroke-linejoin="round"/>
<polygon points="345.80,268.36 842.00,268.36 842.00,227.01 345.80,227.01" fill="#ffffff" stroke="#2563eb" stroke-width="2.2" opacity="0.55" stroke-linejoin="round"/>
<polygon points="842.00,268.36 554.20,446.99 554.20,405.64 842.00,227.01" fill="#ffffff" stroke="#2563eb" stroke-width="2.2" opacity="0.45" stroke-linejoin="round"/>
<line x1="345.80" y1="268.36" x2="842.00" y2="268.36" stroke="#2563eb" stroke-width="2.0" stroke-linecap="round"/>
<line x1="842.00" y1="268.36" x2="554.20" y2="446.99" stroke="#2563eb" stroke-width="2.0" stroke-linecap="round"/>
<line x1="554.20" y1="446.99" x2="58.00" y2="446.99" stroke="#2563eb" stroke-width="2.0" stroke-linecap="round"/>
<line x1="58.00" y1="446.99" x2="345.80" y2="268.36" stroke="#2563eb" stroke-width="2.0" stroke-linecap="round"/>
<line x1="345.80" y1="227.01" x2="842.00" y2="227.01" stroke="#2563eb" stroke-width="2.0" stroke-linecap="round"/>
<line x1="842.00" y1="227.01" x2="554.20" y2="405.64" stroke="#2563eb" stroke-width="2.0" stroke-linecap="round"/>
<line x1="554.20" y1="405.64" x2="58.00" y2="405.64" stroke="#2563eb" stroke-width="2.0" stroke-linecap="round"/>
<line x1="58.00" y1="405.64" x2="345.80" y2="227.01" stroke="#2563eb" stroke-width="2.0" stroke-linecap="round"/>
<line x1="345.80" y1="268.36" x2="345.80" y2="227.01" stroke="#2563eb" stroke-width="2.0" stroke-linecap="round"/>
<line x1="842.00" y1="268.36" x2="842.00" y2="227.01" stroke="#2563eb" stroke-width="2.0" stroke-linecap="round"/>
<line x1="554.20" y1="446.99" x2="554.20" y2="405.64" stroke="#2563eb" stroke-width="2.0" stroke-linecap="round"/>
<line x1="58.00" y1="446.99" x2="58.00" y2="405.64" stroke="#2563eb" stroke-width="2.0" stroke-linecap="round"/>
<polygon points="586.46,283.24 580.99,286.46 574.96,289.66 568.39,292.83 561.32,295.96 553.77,299.04 545.78,302.04 537.38,304.97 528.60,307.81 519.49,310.54 510.08,313.15 500.41,315.63 490.53,317.98 480.47,320.18 470.28,322.22 460.00,324.09 449.69,325.79 439.37,327.30 429.10,328.63 418.92,329.76 408.87,330.69 399.00,331.42 389.34,331.95 379.95,332.26 370.86,332.37 362.10,332.26 353.72,331.95 345.76,331.42 338.24,330.69 331.19,329.76 324.66,328.63 318.66,327.30 313.23,325.79 308.38,324.09 304.14,322.22 300.52,320.18 297.55,317.98 295.22,315.63 293.56,313.15 292.57,310.54 292.25,307.81 292.61,304.97 293.64,302.04 295.35,299.04 297.71,295.96 300.73,292.83 304.38,289.66 308.66,286.46 313.54,283.24 319.01,280.03 325.04,276.83 331.61,273.66 338.68,270.53 346.23,267.45 354.22,264.45 362.62,261.52 371.40,258.68 380.51,255.95 389.92,253.34 399.59,250.85 409.47,248.51 419.53,246.31 429.72,244.27 440.00,242.40 450.31,240.70 460.63,239.19 470.90,237.86 481.08,236.73 491.13,235.79 501.00,235.06 510.66,234.54 520.05,234.23 529.14,234.12 537.90,234.23 546.28,234.54 554.24,235.06 561.76,235.79 568.81,236.73 575.34,237.86 581.34,239.19 586.77,240.70 591.62,242.40 595.86,244.27 599.48,246.31 602.45,248.51 604.78,250.85 606.44,253.34 607.43,255.95 607.75,258.68 607.39,261.52 606.36,264.45 604.65,267.45 602.29,270.53 599.27,273.66 595.62,276.83 591.34,280.03" fill="none" stroke="#dc2626" stroke-width="2.4" opacity="1.0" stroke-linejoin="round"/>
<polygon points="520.30,283.24 517.48,284.90 514.37,286.55 510.99,288.18 507.35,289.79 503.46,291.38 499.34,292.93 495.01,294.44 490.49,295.90 485.80,297.30 480.95,298.65 475.97,299.93 470.88,301.14 465.70,302.27 460.45,303.32 455.15,304.29 449.84,305.16 444.52,305.94 439.23,306.62 433.99,307.21 428.81,307.69 423.73,308.06 418.75,308.33 413.91,308.50 409.23,308.55 404.72,308.50 400.40,308.33 396.30,308.06 392.42,307.69 388.80,307.21 385.43,306.62 382.34,305.94 379.54,305.16 377.05,304.29 374.86,303.32 373.00,302.27 371.46,301.14 370.27,299.93 369.41,298.65 368.90,297.30 368.74,295.90 368.92,294.44 369.45,292.93 370.33,291.38 371.55,289.79 373.10,288.18 374.98,286.55 377.19,284.90 379.70,283.24 382.52,281.59 385.63,279.94 389.01,278.31 392.65,276.69 396.54,275.11 400.66,273.56 404.99,272.05 409.51,270.59 414.20,269.19 419.05,267.84 424.03,266.56 429.12,265.35 434.30,264.22 439.55,263.17 444.85,262.20 450.16,261.33 455.48,260.55 460.77,259.86 466.01,259.28 471.19,258.80 476.27,258.42 481.25,258.15 486.09,257.99 490.77,257.94 495.28,257.99 499.60,258.15 503.70,258.42 507.58,258.80 511.20,259.28 514.57,259.86 517.66,260.55 520.46,261.33 522.95,262.20 525.14,263.17 527.00,264.22 528.54,265.35 529.73,266.56 530.59,267.84 531.10,269.19 531.26,270.59 531.08,272.05 530.55,273.56 529.67,275.11 528.45,276.69 526.90,278.31 525.02,279.94 522.81,281.59" fill="none" stroke="#dc2626" stroke-width="2.0" opacity="1.0" stroke-linejoin="round"/>
<text x="28" y="622" font-family="Inter,Arial,sans-serif" font-size="14" fill="#64748b">schematic isometric SVG - bodies color coded</text>
</svg>