<svg xmlns="http://www.w3.org/2000/svg" width="900" height="650" viewBox="0 0 900 650">
<rect width="100%" height="100%" fill="#ffffff"/>
<text x="28" y="38" font-family="Inter,Arial,sans-serif" font-size="22" font-weight="700" fill="#111827">39 angled plate gap 3mm</text>
<polygon points="276.62,348.14 842.00,348.14 623.38,483.84 58.00,483.84" fill="#dbeafe" stroke="#2563eb" stroke-width="2.2" opacity="0.78" stroke-linejoin="round"/>
<polygon points="276.62,398.40 842.00,398.40 842.00,348.14 276.62,348.14" fill="#ffffff" stroke="#2563eb" stroke-width="2.2" opacity="0.55" stroke-linejoin="round"/>
<polygon points="842.00,398.40 623.38,534.09 623.38,483.84 842.00,348.14" fill="#ffffff" stroke="#2563eb" stroke-width="2.2" opacity="0.45" stroke-linejoin="round"/>
<line x1="276.62" y1="398.40" x2="842.00" y2="398.40" stroke="#2563eb" stroke-width="2.0" stroke-linecap="round"/>
<line x1="842.00" y1="398.40" x2="623.38" y2="534.09" stroke="#2563eb" stroke-width="2.0" stroke-linecap="round"/>
<line x1="623.38" y1="534.09" x2="58.00" y2="534.09" stroke="#2563eb" stroke-width="2.0" stroke-linecap="round"/>
<line x1="58.00" y1="534.09" x2="276.62" y2="398.40" stroke="#2563eb" stroke-width="2.0" stroke-linecap="round"/>
<line x1="276.62" y1="348.14" x2="842.00" y2="348.14" stroke="#2563eb" stroke-width="2.0" stroke-linecap="round"/>
<line x1="842.00" y1="348.14" x2="623.38" y2="483.84" stroke="#2563eb" stroke-width="2.0" stroke-linecap="round"/>
<line x1="623.38" y1="483.84" x2="58.00" y2="483.84" stroke="#2563eb" stroke-width="2.0" stroke-linecap="round"/>
<line x1="58.00" y1="483.84" x2="276.62" y2="348.14" stroke="#2563eb" stroke-width="2.0" stroke-linecap="round"/>
<line x1="276.62" y1="398.40" x2="276.62" y2="348.14" stroke="#2563eb" stroke-width="2.0" stroke-linecap="round"/>
<line x1="842.00" y1="398.40" x2="842.00" y2="348.14" stroke="#2563eb" stroke-width="2.0" stroke-linecap="round"/>
<line x1="623.38" y1="534.09" x2="623.38" y2="483.84" stroke="#2563eb" stroke-width="2.0" stroke-linecap="round"/>
<line x1="58.00" y1="534.09" x2="58.00" y2="483.84" stroke="#2563eb" stroke-width="2.0" stroke-linecap="round"/>
<polygon points="312.74,139.91 652.14,188.83 587.26,214.64 247.86,165.72" fill="#fee2e2" stroke="#dc2626" stroke-width="2.2" opacity="0.78" stroke-linejoin="round"/>
<polygon points="312.74,359.78 652.14,408.70 652.14,188.83 312.74,139.91" fill="#ffffff" stroke="#dc2626" stroke-width="2.2" opacity="0.55" stroke-linejoin="round"/>
<polygon points="652.14,408.70 587.26,434.51 587.26,214.64 652.14,188.83" fill="#ffffff" stroke="#dc2626" stroke-width="2.2" opacity="0.45" stroke-linejoin="round"/>
<line x1="312.74" y1="359.78" x2="652.14" y2="408.70" stroke="#dc2626" stroke-width="2.0" stroke-linecap="round"/>
<line x1="652.14" y1="408.70" x2="587.26" y2="434.51" stroke="#dc2626" stroke-width="2.0" stroke-linecap="round"/>
<line x1="587.26" y1="434.51" x2="247.86" y2="385.59" stroke="#dc2626" stroke-width="2.0" stroke-linecap="round"/>
<line x1="247.86" y1="385.59" x2="312.74" y2="359.78" stroke="#dc2626" stroke-width="2.0" stroke-linecap="round"/>
<line x1="312.74" y1="139.91" x2="652.14" y2="188.83" stroke="#dc2626" stroke-width="2.0" stroke-linecap="round"/>
<line x1="652.14" y1="188.83" x2="587.26" y2="214.64" stroke="#dc2626" stroke-width="2.0" stroke-linecap="round"/>
<line x1="587.26" y1="214.64" x2="247.86" y2="165.72" stroke="#dc2626" stroke-width="2.0" stroke-linecap="round"/>
<line x1="247.86" y1="165.72" x2="312.74" y2="139.91" stroke="#dc2626" stroke-width="2.0" stroke-linecap="round"/>
<line x1="312.74" y1="359.78" x2="312.74" y2="139.91" stroke="#dc2626" stroke-width="2.0" stroke-linecap="round"/>
<line x1="652.14" y1="408.70" x2="652.14" y2="188.83" stroke="#dc2626" stroke-width="2.0" stroke-linecap="round"/>
<line x1="587.26" y1="434.51" x2="587.26" y2="214.64" stroke="#dc2626" stroke-width="2.0" stroke-linecap="round"/>
<line x1="247.86" y1="385.59" x2="247.86" y2="165.72" stroke="#dc2626" stroke-width="2.0" stroke-linecap="round"/>
<text x="28" y="622" font-family="Inter,Arial,sans-serif" font-size="14" fill="#64748b">schematic isometric SVG - bodies color coded</text>
</svg>