<svg xmlns="http://www.w3.org/2000/svg" width="900" height="650" viewBox="0 0 900 650">
<rect width="100%" height="100%" fill="#ffffff"/>
<text x="28" y="38" font-family="Inter,Arial,sans-serif" font-size="22" font-weight="700" fill="#111827">45 angled butt joint</text>
<polygon points="184.45,225.09 547.80,225.09 421.36,303.57 58.00,303.57" fill="#dbeafe" stroke="#2563eb" stroke-width="2.2" opacity="0.78" stroke-linejoin="round"/>
<polygon points="184.45,370.43 547.80,370.43 547.80,225.09 184.45,225.09" fill="#ffffff" stroke="#2563eb" stroke-width="2.2" opacity="0.55" stroke-linejoin="round"/>
<polygon points="547.80,370.43 421.36,448.91 421.36,303.57 547.80,225.09" fill="#ffffff" stroke="#2563eb" stroke-width="2.2" opacity="0.45" stroke-linejoin="round"/>
<line x1="184.45" y1="370.43" x2="547.80" y2="370.43" stroke="#2563eb" stroke-width="2.0" stroke-linecap="round"/>
<line x1="547.80" y1="370.43" x2="421.36" y2="448.91" stroke="#2563eb" stroke-width="2.0" stroke-linecap="round"/>
<line x1="421.36" y1="448.91" x2="58.00" y2="448.91" stroke="#2563eb" stroke-width="2.0" stroke-linecap="round"/>
<line x1="58.00" y1="448.91" x2="184.45" y2="370.43" stroke="#2563eb" stroke-width="2.0" stroke-linecap="round"/>
<line x1="184.45" y1="225.09" x2="547.80" y2="225.09" stroke="#2563eb" stroke-width="2.0" stroke-linecap="round"/>
<line x1="547.80" y1="225.09" x2="421.36" y2="303.57" stroke="#2563eb" stroke-width="2.0" stroke-linecap="round"/>
<line x1="421.36" y1="303.57" x2="58.00" y2="303.57" stroke="#2563eb" stroke-width="2.0" stroke-linecap="round"/>
<line x1="58.00" y1="303.57" x2="184.45" y2="225.09" stroke="#2563eb" stroke-width="2.0" stroke-linecap="round"/>
<line x1="184.45" y1="370.43" x2="184.45" y2="225.09" stroke="#2563eb" stroke-width="2.0" stroke-linecap="round"/>
<line x1="547.80" y1="370.43" x2="547.80" y2="225.09" stroke="#2563eb" stroke-width="2.0" stroke-linecap="round"/>
<line x1="421.36" y1="448.91" x2="421.36" y2="303.57" stroke="#2563eb" stroke-width="2.0" stroke-linecap="round"/>
<line x1="58.00" y1="448.91" x2="58.00" y2="303.57" stroke="#2563eb" stroke-width="2.0" stroke-linecap="round"/>
<polygon points="734.09,190.33 842.00,282.83 598.43,338.33 490.52,245.83" fill="#fee2e2" stroke="#dc2626" stroke-width="2.2" opacity="0.78" stroke-linejoin="round"/>
<polygon points="734.09,335.67 842.00,428.17 842.00,282.83 734.09,190.33" fill="#ffffff" stroke="#dc2626" stroke-width="2.2" opacity="0.55" stroke-linejoin="round"/>
<polygon points="842.00,428.17 598.43,483.67 598.43,338.33 842.00,282.83" fill="#ffffff" stroke="#dc2626" stroke-width="2.2" opacity="0.45" stroke-linejoin="round"/>
<line x1="734.09" y1="335.67" x2="842.00" y2="428.17" stroke="#dc2626" stroke-width="2.0" stroke-linecap="round"/>
<line x1="842.00" y1="428.17" x2="598.43" y2="483.67" stroke="#dc2626" stroke-width="2.0" stroke-linecap="round"/>
<line x1="598.43" y1="483.67" x2="490.52" y2="391.17" stroke="#dc2626" stroke-width="2.0" stroke-linecap="round"/>
<line x1="490.52" y1="391.17" x2="734.09" y2="335.67" stroke="#dc2626" stroke-width="2.0" stroke-linecap="round"/>
<line x1="734.09" y1="190.33" x2="842.00" y2="282.83" stroke="#dc2626" stroke-width="2.0" stroke-linecap="round"/>
<line x1="842.00" y1="282.83" x2="598.43" y2="338.33" stroke="#dc2626" stroke-width="2.0" stroke-linecap="round"/>
<line x1="598.43" y1="338.33" x2="490.52" y2="245.83" stroke="#dc2626" stroke-width="2.0" stroke-linecap="round"/>
<line x1="490.52" y1="245.83" x2="734.09" y2="190.33" stroke="#dc2626" stroke-width="2.0" stroke-linecap="round"/>
<line x1="734.09" y1="335.67" x2="734.09" y2="190.33" stroke="#dc2626" stroke-width="2.0" stroke-linecap="round"/>
<line x1="842.00" y1="428.17" x2="842.00" y2="282.83" stroke="#dc2626" stroke-width="2.0" stroke-linecap="round"/>
<line x1="598.43" y1="483.67" x2="598.43" y2="338.33" stroke="#dc2626" stroke-width="2.0" stroke-linecap="round"/>
<line x1="490.52" y1="391.17" x2="490.52" y2="245.83" stroke="#dc2626" stroke-width="2.0" stroke-linecap="round"/>
<text x="28" y="622" font-family="Inter,Arial,sans-serif" font-size="14" fill="#64748b">schematic isometric SVG - bodies color coded</text>
</svg>